<?xml version="1.0" encoding="utf-8"?>
<!-- Generator: Adobe Illustrator 15.0.0, SVG Export Plug-In . SVG Version: 6.00 Build 0)  -->
<!DOCTYPE svg PUBLIC "-//W3C//DTD SVG 1.1//EN" "http://www.w3.org/Graphics/SVG/1.1/DTD/svg11.dtd">
<svg version="1.1" id="Layer_1" xmlns="http://www.w3.org/2000/svg" xmlns:xlink="http://www.w3.org/1999/xlink" x="0px" y="0px"
	 width="144px" height="144px" viewBox="0 0 144 144" enable-background="new 0 0 144 144" xml:space="preserve">
<g>
	<g>
		<path fill="#E24D54" d="M72.334,125.023h51.788c15.84,0,14.325-10.449,14.325-26.288V80.414c0-15.837,1.515-26.284-14.325-26.284
			H72.334H20.546c-15.839,0-14.325,10.447-14.325,26.284v18.321c0,15.839-1.514,26.288,14.325,26.288H72.334z"/>
		<path fill="#E24D54" d="M93.045,59.308v-17.7v-1.021h1.12h9.036c0,0,0.448,0.026,0.561-0.286s-0.369-0.676-0.369-0.676
			L73.852,11.289c0,0-0.672-0.712-1.121-0.712c-0.448,0-1.12,0.712-1.12,0.712L42.068,39.625c0,0-0.48,0.364-0.368,0.676
			c0.112,0.312,0.561,0.286,0.561,0.286h9.036h1.12v1.021v17.7H93.045z"/>
	</g>
	<g>
		<path fill="#FFFFFF" d="M50.397,66.563c0.592,0.822,0.887,1.806,0.887,2.951c0,1.182-0.297,2.129-0.895,2.846
			c-0.334,0.403-0.825,0.771-1.475,1.104c0.987,0.356,1.731,0.924,2.233,1.703c0.503,0.779,0.754,1.723,0.754,2.833
			c0,1.146-0.287,2.173-0.861,3.081c-0.365,0.606-0.821,1.11-1.369,1.521c-0.617,0.474-1.346,0.798-2.185,0.971
			c-0.84,0.178-1.75,0.264-2.733,0.264h-8.711V64.503h9.343C47.744,64.539,49.415,65.225,50.397,66.563z M39.9,67.862v4.263h4.698
			c0.84,0,1.521-0.159,2.045-0.479c0.523-0.32,0.785-0.885,0.785-1.699c0-0.9-0.346-1.495-1.038-1.784
			c-0.598-0.201-1.36-0.301-2.285-0.301H39.9z M39.9,75.327v5.152h4.693c0.838,0,1.491-0.111,1.958-0.341
			c0.847-0.42,1.271-1.223,1.271-2.413c0-1.006-0.411-1.696-1.232-2.072c-0.458-0.21-1.102-0.319-1.931-0.326H39.9z"/>
		<path fill="#FFFFFF" d="M60.906,64.503h4.572l6.84,19.334h-4.382l-1.275-3.975h-7.119l-1.312,3.975h-4.226L60.906,64.503z
			 M60.64,76.531h4.952l-2.442-7.607L60.64,76.531z"/>
		<path fill="#FFFFFF" d="M76.624,66.523c1.557-1.59,3.538-2.386,5.944-2.386c3.218,0,5.57,1.066,7.06,3.2
			c0.821,1.198,1.263,2.4,1.323,3.606h-4.04c-0.259-0.926-0.588-1.625-0.989-2.098c-0.721-0.839-1.788-1.259-3.199-1.259
			c-1.44,0-2.574,0.593-3.408,1.778c-0.83,1.184-1.246,2.86-1.246,5.029c0,2.17,0.439,3.794,1.316,4.873
			c0.878,1.08,1.991,1.619,3.342,1.619c1.387,0,2.443-0.462,3.17-1.391c0.401-0.497,0.734-1.246,1.001-2.24h4.014
			c-0.348,2.104-1.231,3.82-2.653,5.141c-1.424,1.319-3.246,1.981-5.471,1.981c-2.751,0-4.912-0.892-6.487-2.677
			c-1.575-1.792-2.362-4.25-2.362-7.372C73.938,70.953,74.834,68.352,76.624,66.523z"/>
		<path fill="#FFFFFF" d="M94.242,64.503h3.975v7.966l7.471-7.966h5.218l-7.933,7.953l8.341,11.382h-5.194l-5.956-8.438
			l-1.946,1.972v6.467h-3.975V64.503z"/>
		<path fill="#FFFFFF" d="M39.538,96.739v3.424h-5.784v15.912h-4.065v-15.912h-5.812v-3.424H39.538z"/>
		<path fill="#FFFFFF" d="M56.315,114.355c-1.461,1.505-3.573,2.257-6.336,2.257s-4.874-0.752-6.335-2.257
			c-1.959-1.847-2.938-4.502-2.938-7.975c0-3.543,0.979-6.199,2.938-7.975c1.461-1.506,3.572-2.257,6.335-2.257
			s4.875,0.751,6.336,2.257c1.95,1.775,2.924,4.432,2.924,7.975C59.239,109.854,58.265,112.509,56.315,114.355z M53.79,111.417
			c0.939-1.181,1.409-2.859,1.409-5.036c0-2.168-0.47-3.847-1.409-5.032c-0.941-1.183-2.21-1.775-3.812-1.775
			c-1.6,0-2.876,0.59-3.83,1.771c-0.954,1.182-1.43,2.859-1.43,5.037c0,2.177,0.476,3.855,1.43,5.036
			c0.953,1.181,2.23,1.771,3.83,1.771C51.58,113.188,52.849,112.598,53.79,111.417z"/>
		<path fill="#FFFFFF" d="M83.833,96.739v3.424H78.05v15.912h-4.065v-15.912h-5.811v-3.424H83.833z"/>
		<path fill="#FFFFFF" d="M100.611,114.355c-1.461,1.505-3.573,2.257-6.337,2.257c-2.763,0-4.875-0.752-6.334-2.257
			c-1.96-1.847-2.938-4.502-2.938-7.975c0-3.543,0.979-6.199,2.938-7.975c1.459-1.506,3.571-2.257,6.334-2.257
			c2.764,0,4.876,0.751,6.337,2.257c1.948,1.775,2.924,4.432,2.924,7.975C103.535,109.854,102.56,112.509,100.611,114.355z
			 M98.086,111.417c0.94-1.181,1.409-2.859,1.409-5.036c0-2.168-0.469-3.847-1.409-5.032c-0.94-1.183-2.21-1.775-3.812-1.775
			c-1.599,0-2.878,0.59-3.829,1.771c-0.953,1.182-1.432,2.859-1.432,5.037c0,2.177,0.479,3.855,1.432,5.036
			c0.951,1.181,2.23,1.771,3.829,1.771C95.876,113.188,97.146,112.598,98.086,111.417z"/>
		<path fill="#FFFFFF" d="M119.597,107.706c-1.13,0.943-2.747,1.414-4.848,1.414h-4.025v6.955h-4.015V96.739h8.302
			c1.914,0,3.44,0.497,4.579,1.496c1.137,0.997,1.706,2.539,1.706,4.631C121.296,105.148,120.729,106.761,119.597,107.706z
			 M116.514,100.742c-0.511-0.43-1.228-0.645-2.149-0.645h-3.641v5.692h3.641c0.922,0,1.639-0.231,2.149-0.693
			c0.511-0.467,0.768-1.199,0.768-2.205S117.024,101.169,116.514,100.742z"/>
	</g>
</g>
</svg>
