<?xml version="1.0" encoding="utf-8"?>
<!-- Generator: Adobe Illustrator 15.0.0, SVG Export Plug-In . SVG Version: 6.00 Build 0)  -->
<!DOCTYPE svg PUBLIC "-//W3C//DTD SVG 1.1//EN" "http://www.w3.org/Graphics/SVG/1.1/DTD/svg11.dtd">
<svg version="1.1" id="Layer_1" xmlns="http://www.w3.org/2000/svg" xmlns:xlink="http://www.w3.org/1999/xlink" x="0px" y="0px"
	 width="144px" height="144px" viewBox="0 0 144 144" enable-background="new 0 0 144 144" xml:space="preserve">
<g>
	<g>
		<path fill="#FFFFFF" stroke="#212020" stroke-width="1.9288" stroke-miterlimit="10" d="M41.874,20.097
			c0-15.396-1.215-14.842,11.224-14.842h58.111c13.294,0,11.225-1.097,11.225,14.842v76.839c0,16.301,1.527,14.842-11.225,14.842
			H53.098c-12.483,0-11.224,1.859-11.224-14.842V20.097z"/>
		<g>
			<path fill-rule="evenodd" clip-rule="evenodd" d="M61.334,60.311c0-0.472,0-0.944,0-1.416c-1.193-0.149-1.607,0.507-2.358,0.472
				c-0.177-0.008-0.368-0.916-0.473-0.943c-0.338-0.087-1.864,0.97-3.302,0.471c0.235-1.77,2.63,0.497,3.302-1.415
				c0.942-0.546,0.708,0.855,0.944,0.944c0.588,0.22,2.739-0.563,3.302,0c0.062,0.061-0.059,0.937,0,0.943
				c0.376,0.039,2.562-0.854,3.302-0.943c1.418-0.17,2.513,0.124,4.247,0c1.442,0.729-2.047,0.415-2.831,0.471
				C65.287,59.231,63.531,59.991,61.334,60.311z"/>
			<path fill-rule="evenodd" clip-rule="evenodd" d="M89.641,57.953c0.256,1.125-0.72,0.74-1.414,0.943
				c-1.289,0.376-3.311,0.474-5.191,0.944c-0.282,0.07-0.476,0.473-0.471,0.472c-0.297,0.043-0.82-0.499-1.416-0.472
				c-0.389,0.017-0.757,0.67-1.414,0.472c-0.244-1.645-3.083-0.692-4.719-0.944c0.627-1.418,3.74-0.349,4.719-1.415
				c0.521-0.02,0.607,1.341,0.942,1.415c0.442,0.099,0.905-0.858,1.416-0.943c0.775-0.129,0.804,0.497,1.415,0.471
				c0.328-0.014,0.546-0.385,0.943-0.471C85.783,58.134,88.004,58.056,89.641,57.953z"/>
			<path fill-rule="evenodd" clip-rule="evenodd" d="M73.602,65.029c0.801-0.173,0.89,0.368,0.941,0.943
				c0.117,0.513,0.939,0.32,0.945,0.944c3.32-0.78,8.106-1.498,11.793-0.472c-0.867,1.203-2.389,0.067-3.301,0
				c-1.845-0.136-3.556-0.012-5.19,0.472c-1.249,0.369-3.154,0.869-5.188,0C73.055,66.217,73.055,65.727,73.602,65.029z"/>
			<path fill-rule="evenodd" clip-rule="evenodd" d="M109.455,65.029c-1.467,2.247-5.976,0.668-8.963,1.416
				c-1.041,0.26-1.566,0.868-2.359,0.943c-0.026,0.002,0.047-0.907,0-0.943c0.397,0.307-2.473,0.294-1.887,0.943
				c-0.568-0.532-0.854-1.347-2.359-0.943c0.36-0.321,0.839-0.874,1.416-0.943c1.041-0.127,1.205,0.464,1.887,0.471
				c0.338,0.004,0.523-0.416,0.943-0.471c0.779-0.104,0.801,0.479,1.416,0.471c0.324-0.003,0.545-0.395,0.943-0.471
				c1.018-0.196,3.717-0.43,4.718,0c0.209,0.089-0.056,0.51,0.472,0.471C106.586,65.907,107.838,64.955,109.455,65.029z"/>
			<path fill-rule="evenodd" clip-rule="evenodd" d="M46.709,66.444c0.203-1.055,2.325-0.191,3.302-0.472
				C49.871,66.565,47.364,67.071,46.709,66.444z"/>
			<path fill-rule="evenodd" clip-rule="evenodd" d="M67.939,73.049c0.014,1.262-1.708,0.424-2.831,0.472
				c-1.063,0.046-2.319,0.888-2.832,0c-1.536,1.478-2.934,0.186-5.661,0.472c-0.629,0-1.258,0-1.887,0
				c0.979-0.973,2.196-0.354,3.302-0.472c1.316-0.14,2.618-0.358,3.775-0.472c0.525-0.051,0.682-0.881,0.943-0.943
				c0.755-0.179,2.084,0.328,2.832,0.472C66.499,72.754,67.185,72.817,67.939,73.049z"/>
			<path fill-rule="evenodd" clip-rule="evenodd" d="M93.415,72.105c1.207-0.021,0.575,0.351,0.472,0.943
				c0.381,0.406,1.293,0.281,1.416,0.943c3.191-0.908,8.161-1.441,11.794-0.472c-1.015,1.243-2.584,0.108-3.774,0
				c-3.395-0.307-6.852,1.794-9.907,0.472C92.869,73.295,92.869,72.804,93.415,72.105z"/>
			<path fill-rule="evenodd" clip-rule="evenodd" d="M50.483,73.049c0.288,1.861-2.59,0.555-3.774,0.943
				C46.421,72.132,49.299,73.438,50.483,73.049z"/>
			<path fill-rule="evenodd" clip-rule="evenodd" d="M62.75,79.654c-0.256,0.954-2.341,0.325-3.773,0.473
				c-1.898,0.193-3.883,0.939-5.662,0.943c-0.144,0-0.853,0.092-0.944,0c-0.086-0.087,0.099-0.915,0-0.943
				c-0.174-0.053-1.228,0.521-1.887,0.471c-0.839-0.062-2.657-1.021-3.303,0.473c-1.712-1.292,2.001-1.107,2.359-1.888
				c0.879-0.431,1.126,0.892,1.417,0.944c0.292,0.051,1.139-0.529,1.887-0.473c0.291,0.021,1.9,1.031,2.358,0.473
				c0.657-0.804,0.627,0.029,1.416,0C58.677,80.048,60.694,78.853,62.75,79.654z"/>
			<path fill-rule="evenodd" clip-rule="evenodd" d="M76.902,79.654c-0.563,1.729-2.943,0.647-4.717,0.943
				c-1.389,0.231-2.293,0.848-3.302,0.943c0.475-1.419-1.051-0.836-1.887-0.943c0.315-1.715,2.745-0.766,3.302,0
				C71.987,78.721,74.816,80.742,76.902,79.654z"/>
			<path fill-rule="evenodd" clip-rule="evenodd" d="M94.83,85.787c1.19,0.854,2.471,1.618,4.719,1.415
				c-0.352,1.727-3.612,0.825-4.246,0c-1.033-0.224-1.161,0.761-1.888,0.943c-0.691,0.175-1.437-0.632-2.358,0
				c-0.756-1.313,2.037-1.304,1.887-0.472C93.775,87.248,94.404,86.619,94.83,85.787z"/>
			<path fill-rule="evenodd" clip-rule="evenodd" d="M86.339,86.259c0.443,1.626-1.925,0.743-2.831,0.943
				c0.016-0.003-0.216,0.408-0.473,0.472c-0.296,0.074-0.645-0.066-0.942,0c-0.958,0.215-1.387,0.035-2.831,0.472
				c-0.195,0.06-0.565,0.48-0.472,0.473c-0.675,0.06-1.826-1.442-1.888,0c-0.875-1.326-3.506-0.897-5.661-0.944
				c0.002-0.486,0.592-0.33,0.943-0.472c-0.238,0.095,3.801-1.388,4.717-0.472c0.051,0.05-0.035,0.944,0,0.943
				c0.143-0.003,0.777-0.364,0.944-0.472c0.008-0.005,0.675-0.509,0.472-0.472c0.795-0.143,1.027,0.504,1.888,0.472
				c-0.081,0.003,0.194-0.457,0.471-0.472C82.273,86.646,84.178,86.152,86.339,86.259z"/>
			<path fill-rule="evenodd" clip-rule="evenodd" d="M108.984,92.864c1.189,0.854,2.471,1.618,4.718,1.415
				c-0.351,1.727-3.612,0.824-4.247,0c-1.033-0.224-1.16,0.761-1.887,0.943c-0.69,0.174-1.436-0.633-2.358,0
				c-0.755-1.314,2.038-1.305,1.887-0.472C107.929,94.324,108.559,93.695,108.984,92.864z"/>
			<path fill-rule="evenodd" clip-rule="evenodd" d="M59.448,94.279c0.482,1.277-1.317,0.38-2.359,0.472
				c-1.067,0.094-2.64,1.117-2.359-0.472c-2.096,1.953-4.598,0.682-8.492,0.943c0.146-0.641,1.181-0.392,1.887-0.472
				c0.63,0,1.259,0,1.888,0c1.302-0.743,4.068-0.021,4.718-1.415C56.099,93.853,58.077,93.762,59.448,94.279z"/>
			<path fill-rule="evenodd" clip-rule="evenodd" d="M64.165,93.336c1.541-0.125,1,1.83,2.358,1.887
				c3.171-1.096,8.111-1.246,11.795-0.472c-1.017,1.256-2.582,0.091-3.775,0c-1.027-0.079-2.271-0.052-3.301,0
				c-2.062,0.104-4.27,1.842-7.077,0.472C64.165,94.594,64.165,93.965,64.165,93.336z"/>
			<path fill-rule="evenodd" clip-rule="evenodd" d="M98.133,93.808c0.229,1.64-2.014,0.823-2.83,0.943
				c-1.786,0.265-3.037,0.252-5.189,0c-1.022-0.12-3.537-0.312-4.246,0.472c-0.549,0.076-0.84-0.104-0.943-0.472
				c-0.077-0.549,0.104-0.841,0.471-0.943C90.282,93.484,93.885,94.77,98.133,93.808z"/>
			<path fill-rule="evenodd" clip-rule="evenodd" d="M100.02,59.367c1.125,0.432,1.77-0.767,2.832-0.943
				c0.771-0.128,0.805,0.471,1.415,0.471c0.397,0,0.741-0.511,1.415-0.471c0.763,0.044,0.801,0.391,1.415,0.471
				c0.986,0.13,3.515-0.724,3.303,0.944c-1.255-0.882-2.519,0.008-3.774,0c-1.016-0.007-1.208-0.421-1.887-0.472
				c-0.777-0.057-0.799,0.421-1.416,0.472c-0.779,0.063-0.796-0.445-1.416-0.472c0.208,0.009-3.588,1.561-3.301-0.472
				c-1.143,0.588-2.293,1.168-3.775,1.416c-0.109-1.839,2.917-0.544,3.303-1.887C99.375,58.431,101.269,58.162,100.02,59.367z"/>
			<path fill-rule="evenodd" clip-rule="evenodd" d="M68.883,65.972c-0.734,0.646-2.682,1.114-4.718,0.944
				c-0.296-0.025-0.656,0.071-0.943,0c-0.139-0.035-0.684-0.451-0.473-0.472c-0.832,0.083-1.21,0.811-1.887,0.943
				c-1.833,0.358-3.317-0.326-4.718-0.943c-1.945-0.059-2.954,0.82-5.188,0.472c0.076-0.549-0.105-0.84-0.473-0.944
				c1.079-1.647,1.671,1.115,3.302,0.472c0.892-0.523,2.229-0.602,3.303-0.943c1.206,0.052,1.65,0.865,2.359,1.416
				c1.181-0.09,1.72-0.832,2.83-0.944c0.859-0.086,1.433,0.416,2.359,0.472C66.041,66.53,67.323,65.75,68.883,65.972z"/>
			<path fill-rule="evenodd" clip-rule="evenodd" d="M116.532,65.972c-0.13,0.972-1.757,0.444-1.887,1.416
				C113.125,66.58,115.827,66.107,116.532,65.972z"/>
			<path fill-rule="evenodd" clip-rule="evenodd" d="M88.227,72.578c-0.257,0.955-2.342,0.325-3.775,0.471
				c-1.897,0.194-3.883,0.94-5.661,0.943c-0.144,0.001-0.853,0.092-0.943,0c-0.085-0.086,0.099-0.914,0-0.943
				c-0.145-0.043-1.263,0.493-1.888,0.472c-1.025-0.034-2.525-1.082-3.302,0.472c-1.266-0.993,1.973-1.455,2.832-1.887
				c0.895-0.584,0.768,0.903,0.943,0.943c0.242,0.055,1.176-0.525,1.887-0.471c0.723,0.054,0.844,0.473,1.416,0.471
				c0.768-0.003,0.801-0.444,1.414-0.471c0.754-0.035,0.832,0.524,1.416,0.471c0.348-0.03,0.528-0.381,0.943-0.471
				c1.016-0.221,2.191,0.109,3.303-0.472C86.887,72.659,87.67,72.503,88.227,72.578z"/>
			<path fill-rule="evenodd" clip-rule="evenodd" d="M83.508,81.07c0.055-0.624,0.889-0.308,1.416-0.473
				c1.143-0.359,2.233-1.158,3.303-1.415c0.901-0.579,0.76,0.897,0.941,0.944c0.547,0.133,1.248-0.465,2.359-0.473
				c0.902-0.006,1.367,0.545,1.888,0.473c0.966-0.138,1.749-1.38,2.831-0.944c0.433,1.507-1.336,0.745-1.887,0.944
				c-0.268,0.094-2.16,1.613-2.832,0.943c-0.643-0.645,0.352-1.115-1.414-0.473c-0.416,0.15-0.738,0.566-1.416,0.473
				c-1.045,0.259-0.672-0.902-1.416-0.943C85.615,80.039,84.699,82.123,83.508,81.07z"/>
			<path fill-rule="evenodd" clip-rule="evenodd" d="M106.153,80.598c1.124,0.432,1.769-0.768,2.831-0.943
				c0.771-0.129,0.805,0.473,1.415,0.473c0.397,0,0.741-0.512,1.415-0.473c0.764,0.044,0.802,0.391,1.416,0.473
				c0.985,0.129,3.514-0.726,3.302,0.943c-1.256-0.883-2.519,0.007-3.774,0c-1.016-0.008-1.207-0.422-1.887-0.473
				c-0.777-0.058-0.797,0.422-1.416,0.473c-0.779,0.062-0.796-0.446-1.415-0.473c0.208,0.01-3.589,1.561-3.302-0.471
				c-1.143,0.587-2.293,1.167-3.774,1.414c-0.109-1.84,2.915-0.543,3.303-1.887C105.508,79.662,107.4,79.393,106.153,80.598z"/>
			<path fill-rule="evenodd" clip-rule="evenodd" d="M66.996,86.73c-0.613,1.462-2.998,0.303-5.662,0.472
				c-1.02,0.065-4.086,0.561-5.662,0.943c-1.286,0.345-0.949-0.938-1.887-0.943c-1.206,0.21-2.168,0.661-2.83,1.416
				c-1.877-0.411-2.371-0.411-4.247,0c-0.323-1.207,0.809-0.635,1.415-0.944c0.851-0.436,1.73-1.51,2.832-1.415
				c0.132,0.763-0.447,0.812-0.473,1.415c1.838,0.109,2.446-1.014,3.774-1.415c1.046-0.26,0.672,0.901,1.415,0.943
				C59.087,86.686,62.99,86.656,66.996,86.73z"/>
			<path fill-rule="evenodd" clip-rule="evenodd" d="M117.477,87.202c-0.047,2.087-3.693,0.588-4.719,0.472
				c-0.777-0.088-0.805,0.504-1.414,0.472c-0.919-0.047-1.314-0.491-1.889-0.472c-0.941,0.033-1.568,0.848-2.358,0.944
				c-1.46,0.177-1.95-0.874-3.303-0.473c0.415-1.313,1.895-1.563,3.303-1.887c0.134,0.763-0.446,0.812-0.472,1.415
				c0.904,0.14,1.633-0.009,2.359-0.472c0.295-0.188,0.848-0.613,1.415-0.472c0.213,0.053,0.571,0.477,0.472,0.472
				c0.436,0.019,1.025-0.582,1.887-0.472c0.21,0.027,2.09,0.143,2.359,0.472C115.626,87.824,115.956,87.273,117.477,87.202z"/>
			<path fill-rule="evenodd" clip-rule="evenodd" d="M61.334,15.549c0-0.471,0-0.943,0-1.416c-1.193-0.148-1.607,0.507-2.358,0.472
				c-0.177-0.008-0.368-0.916-0.473-0.943c-0.338-0.087-1.864,0.97-3.302,0.471c0.235-1.77,2.63,0.497,3.302-1.415
				c0.942-0.546,0.708,0.855,0.944,0.944c0.588,0.22,2.739-0.563,3.302,0c0.062,0.062-0.059,0.937,0,0.943
				c0.376,0.039,2.562-0.854,3.302-0.943c1.418-0.171,2.513,0.123,4.247,0c1.442,0.729-2.047,0.415-2.831,0.471
				C65.287,14.471,63.531,15.229,61.334,15.549z"/>
			<path fill-rule="evenodd" clip-rule="evenodd" d="M89.641,13.191c0.256,1.126-0.72,0.741-1.414,0.943
				c-1.289,0.376-3.311,0.474-5.191,0.944c-0.282,0.07-0.476,0.473-0.471,0.471c-0.297,0.043-0.82-0.498-1.416-0.471
				c-0.389,0.018-0.757,0.669-1.414,0.471c-0.244-1.644-3.083-0.691-4.719-0.943c0.627-1.418,3.74-0.349,4.719-1.415
				c0.521-0.02,0.607,1.341,0.942,1.415c0.442,0.099,0.905-0.859,1.416-0.943c0.775-0.129,0.804,0.498,1.415,0.471
				c0.328-0.013,0.546-0.385,0.943-0.471C85.783,13.373,88.004,13.294,89.641,13.191z"/>
			<path fill-rule="evenodd" clip-rule="evenodd" d="M73.602,20.267c0.801-0.173,0.89,0.369,0.941,0.944
				c0.117,0.513,0.939,0.32,0.945,0.944c3.32-0.779,8.106-1.497,11.793-0.472c-0.867,1.203-2.389,0.067-3.301,0
				c-1.845-0.136-3.556-0.011-5.19,0.472c-1.249,0.369-3.154,0.869-5.188,0C73.055,21.456,73.055,20.965,73.602,20.267z"/>
			<path fill-rule="evenodd" clip-rule="evenodd" d="M109.455,20.267c-1.467,2.248-5.976,0.669-8.963,1.416
				c-1.041,0.261-1.566,0.869-2.359,0.943c-0.026,0.002,0.047-0.907,0-0.943c0.397,0.308-2.473,0.295-1.887,0.943
				c-0.568-0.532-0.854-1.346-2.359-0.943c0.36-0.321,0.839-0.873,1.416-0.943c1.041-0.127,1.205,0.465,1.887,0.472
				c0.338,0.004,0.523-0.416,0.943-0.472c0.779-0.104,0.801,0.479,1.416,0.472c0.324-0.003,0.545-0.395,0.943-0.472
				c1.018-0.196,3.717-0.429,4.718,0c0.209,0.089-0.056,0.51,0.472,0.472C106.586,21.146,107.838,20.193,109.455,20.267z"/>
			<path fill-rule="evenodd" clip-rule="evenodd" d="M46.709,21.683c0.203-1.055,2.325-0.191,3.302-0.472
				C49.871,21.804,47.364,22.309,46.709,21.683z"/>
			<path fill-rule="evenodd" clip-rule="evenodd" d="M67.939,28.288c0.014,1.262-1.708,0.423-2.831,0.471
				c-1.063,0.046-2.319,0.888-2.832,0c-1.536,1.479-2.934,0.186-5.661,0.472c-0.629,0-1.258,0-1.887,0
				c0.979-0.973,2.196-0.354,3.302-0.472c1.316-0.14,2.618-0.358,3.775-0.471c0.525-0.052,0.682-0.882,0.943-0.944
				c0.755-0.179,2.084,0.327,2.832,0.472C66.499,27.993,67.185,28.056,67.939,28.288z"/>
			<path fill-rule="evenodd" clip-rule="evenodd" d="M93.415,27.344c1.207-0.021,0.575,0.351,0.472,0.944
				c0.381,0.405,1.293,0.28,1.416,0.943c3.191-0.908,8.161-1.441,11.794-0.472c-1.015,1.244-2.584,0.108-3.774,0
				c-3.395-0.306-6.852,1.794-9.907,0.472C92.869,28.533,92.869,28.042,93.415,27.344z"/>
			<path fill-rule="evenodd" clip-rule="evenodd" d="M50.483,28.288c0.288,1.86-2.59,0.554-3.774,0.943
				C46.421,27.37,49.299,28.677,50.483,28.288z"/>
			<path fill-rule="evenodd" clip-rule="evenodd" d="M62.75,34.893c-0.256,0.954-2.341,0.326-3.773,0.473
				c-1.898,0.193-3.883,0.94-5.662,0.943c-0.144,0-0.853,0.091-0.944,0c-0.086-0.087,0.099-0.915,0-0.943
				c-0.174-0.053-1.228,0.521-1.887,0.471c-0.839-0.063-2.657-1.021-3.303,0.473c-1.712-1.292,2.001-1.107,2.359-1.888
				c0.879-0.431,1.126,0.892,1.417,0.944c0.292,0.051,1.139-0.528,1.887-0.473c0.291,0.022,1.9,1.032,2.358,0.473
				c0.657-0.803,0.627,0.03,1.416,0C58.677,35.286,60.694,34.092,62.75,34.893z"/>
			<path fill-rule="evenodd" clip-rule="evenodd" d="M76.902,34.893c-0.563,1.729-2.943,0.648-4.717,0.943
				c-1.389,0.231-2.293,0.848-3.302,0.944c0.475-1.419-1.051-0.836-1.887-0.944c0.315-1.715,2.745-0.766,3.302,0
				C71.987,33.96,74.816,35.981,76.902,34.893z"/>
			<path fill-rule="evenodd" clip-rule="evenodd" d="M94.83,41.026c1.19,0.854,2.471,1.618,4.719,1.415
				c-0.352,1.728-3.612,0.825-4.246,0c-1.033-0.224-1.161,0.761-1.888,0.944c-0.691,0.174-1.437-0.633-2.358,0
				c-0.756-1.314,2.037-1.305,1.887-0.472C93.775,42.487,94.404,41.857,94.83,41.026z"/>
			<path fill-rule="evenodd" clip-rule="evenodd" d="M86.339,41.497c0.443,1.626-1.925,0.744-2.831,0.943
				c0.016-0.003-0.216,0.409-0.473,0.472c-0.296,0.074-0.645-0.066-0.942,0c-0.958,0.215-1.387,0.035-2.831,0.472
				c-0.195,0.059-0.565,0.481-0.472,0.473c-0.675,0.06-1.826-1.443-1.888,0c-0.875-1.327-3.506-0.898-5.661-0.944
				c0.002-0.487,0.592-0.331,0.943-0.472c-0.238,0.096,3.801-1.388,4.717-0.471c0.051,0.05-0.035,0.945,0,0.943
				c0.143-0.003,0.777-0.364,0.944-0.472c0.008-0.005,0.675-0.508,0.472-0.471c0.795-0.144,1.027,0.503,1.888,0.471
				c-0.081,0.003,0.194-0.457,0.471-0.471C82.273,41.886,84.178,41.391,86.339,41.497z"/>
			<path fill-rule="evenodd" clip-rule="evenodd" d="M108.984,48.103c1.189,0.854,2.471,1.618,4.718,1.415
				c-0.351,1.727-3.612,0.825-4.247,0c-1.033-0.223-1.16,0.761-1.887,0.943c-0.69,0.174-1.436-0.632-2.358,0
				c-0.755-1.313,2.038-1.305,1.887-0.471C107.929,49.563,108.559,48.935,108.984,48.103z"/>
			<path fill-rule="evenodd" clip-rule="evenodd" d="M59.448,49.518c0.482,1.277-1.317,0.38-2.359,0.472
				c-1.067,0.094-2.64,1.117-2.359-0.472c-2.096,1.954-4.598,0.682-8.492,0.943c0.146-0.64,1.181-0.391,1.887-0.471
				c0.63,0,1.259,0,1.888,0c1.302-0.742,4.068-0.021,4.718-1.416C56.099,49.092,58.077,49,59.448,49.518z"/>
			<path fill-rule="evenodd" clip-rule="evenodd" d="M64.165,48.574c1.541-0.125,1,1.831,2.358,1.887
				c3.171-1.095,8.111-1.245,11.795-0.471c-1.017,1.255-2.582,0.091-3.775,0c-1.027-0.079-2.271-0.052-3.301,0
				c-2.062,0.104-4.27,1.842-7.077,0.471C64.165,49.832,64.165,49.204,64.165,48.574z"/>
			<path fill-rule="evenodd" clip-rule="evenodd" d="M98.133,49.046c0.229,1.64-2.014,0.823-2.83,0.944
				c-1.786,0.265-3.037,0.252-5.189,0c-1.022-0.12-3.537-0.311-4.246,0.471c-0.549,0.077-0.84-0.104-0.943-0.471
				c-0.077-0.549,0.104-0.84,0.471-0.944C90.282,48.722,93.885,50.008,98.133,49.046z"/>
			<path fill-rule="evenodd" clip-rule="evenodd" d="M100.02,14.606c1.125,0.432,1.77-0.767,2.832-0.943
				c0.771-0.129,0.805,0.471,1.415,0.471c0.397,0,0.741-0.51,1.415-0.471c0.763,0.044,0.801,0.39,1.415,0.471
				c0.986,0.13,3.515-0.723,3.303,0.944c-1.255-0.883-2.519,0.008-3.774,0c-1.016-0.007-1.208-0.421-1.887-0.472
				c-0.777-0.058-0.799,0.422-1.416,0.472c-0.779,0.063-0.796-0.445-1.416-0.472c0.208,0.009-3.588,1.561-3.301-0.472
				c-1.143,0.588-2.293,1.168-3.775,1.416c-0.109-1.839,2.917-0.543,3.303-1.886C99.375,13.67,101.269,13.401,100.02,14.606z"/>
			<path fill-rule="evenodd" clip-rule="evenodd" d="M68.883,21.211c-0.734,0.646-2.682,1.114-4.718,0.944
				c-0.296-0.025-0.656,0.071-0.943,0c-0.139-0.035-0.684-0.451-0.473-0.472c-0.832,0.083-1.21,0.812-1.887,0.943
				c-1.833,0.359-3.317-0.325-4.718-0.943c-1.945-0.059-2.954,0.82-5.188,0.472c0.076-0.549-0.105-0.84-0.473-0.944
				c1.079-1.647,1.671,1.115,3.302,0.472c0.892-0.522,2.229-0.602,3.303-0.943c1.206,0.052,1.65,0.865,2.359,1.416
				c1.181-0.09,1.72-0.831,2.83-0.944c0.859-0.087,1.433,0.416,2.359,0.472C66.041,21.769,67.323,20.988,68.883,21.211z"/>
			<path fill-rule="evenodd" clip-rule="evenodd" d="M116.532,21.211c-0.13,0.971-1.757,0.444-1.887,1.415
				C113.125,21.818,115.827,21.346,116.532,21.211z"/>
			<path fill-rule="evenodd" clip-rule="evenodd" d="M88.227,27.816c-0.257,0.955-2.342,0.325-3.775,0.472
				c-1.897,0.194-3.883,0.94-5.661,0.943c-0.144,0-0.853,0.092-0.943,0c-0.085-0.086,0.099-0.914,0-0.943
				c-0.145-0.044-1.263,0.492-1.888,0.471c-1.025-0.034-2.525-1.082-3.302,0.472c-1.266-0.994,1.973-1.455,2.832-1.887
				c0.895-0.584,0.768,0.904,0.943,0.944c0.242,0.054,1.176-0.525,1.887-0.472c0.723,0.055,0.844,0.474,1.416,0.472
				c0.768-0.003,0.801-0.444,1.414-0.472c0.754-0.035,0.832,0.523,1.416,0.472c0.348-0.031,0.528-0.382,0.943-0.472
				c1.016-0.221,2.191,0.109,3.303-0.472C86.887,27.897,87.67,27.742,88.227,27.816z"/>
			<path fill-rule="evenodd" clip-rule="evenodd" d="M83.508,36.309c0.055-0.624,0.889-0.308,1.416-0.473
				c1.143-0.359,2.233-1.158,3.303-1.415c0.901-0.579,0.76,0.898,0.941,0.944c0.547,0.133,1.248-0.464,2.359-0.473
				c0.902-0.006,1.367,0.545,1.888,0.473c0.966-0.137,1.749-1.38,2.831-0.944c0.433,1.508-1.336,0.746-1.887,0.944
				c-0.268,0.094-2.16,1.613-2.832,0.943c-0.643-0.644,0.352-1.114-1.414-0.473c-0.416,0.151-0.738,0.568-1.416,0.473
				c-1.045,0.26-0.672-0.901-1.416-0.943C85.615,35.278,84.699,37.361,83.508,36.309z"/>
			<path fill-rule="evenodd" clip-rule="evenodd" d="M106.153,35.836c1.124,0.432,1.769-0.767,2.831-0.943
				c0.771-0.128,0.805,0.473,1.415,0.473c0.397,0,0.741-0.512,1.415-0.473c0.764,0.044,0.802,0.392,1.416,0.473
				c0.985,0.128,3.514-0.726,3.302,0.943c-1.256-0.883-2.519,0.007-3.774,0c-1.016-0.007-1.207-0.422-1.887-0.473
				c-0.777-0.058-0.797,0.422-1.416,0.473c-0.779,0.062-0.796-0.446-1.415-0.473c0.208,0.01-3.589,1.561-3.302-0.471
				c-1.143,0.587-2.293,1.167-3.774,1.415c-0.109-1.84,2.915-0.544,3.303-1.887C105.508,34.9,107.4,34.631,106.153,35.836z"/>
			<path fill-rule="evenodd" clip-rule="evenodd" d="M66.996,41.969c-0.613,1.462-2.998,0.304-5.662,0.471
				c-1.02,0.065-4.086,0.561-5.662,0.944c-1.286,0.344-0.949-0.938-1.887-0.944c-1.206,0.21-2.168,0.663-2.83,1.417
				c-1.877-0.412-2.371-0.412-4.247,0c-0.323-1.207,0.809-0.634,1.415-0.944c0.851-0.435,1.73-1.51,2.832-1.416
				c0.132,0.762-0.447,0.812-0.473,1.416c1.838,0.108,2.446-1.013,3.774-1.416c1.046-0.26,0.672,0.901,1.415,0.943
				C59.087,41.924,62.99,41.895,66.996,41.969z"/>
			<path fill-rule="evenodd" clip-rule="evenodd" d="M117.477,42.44c-0.047,2.088-3.693,0.589-4.719,0.472
				c-0.777-0.088-0.805,0.503-1.414,0.472c-0.919-0.046-1.314-0.492-1.889-0.472c-0.941,0.034-1.568,0.848-2.358,0.944
				c-1.46,0.176-1.95-0.875-3.303-0.473c0.415-1.314,1.895-1.564,3.303-1.887c0.134,0.762-0.446,0.812-0.472,1.416
				c0.904,0.139,1.633-0.009,2.359-0.472c0.295-0.188,0.848-0.613,1.415-0.471c0.213,0.053,0.571,0.476,0.472,0.471
				c0.436,0.019,1.025-0.582,1.887-0.471c0.21,0.027,2.09,0.142,2.359,0.471C115.626,43.064,115.956,42.511,117.477,42.44z"/>
		</g>
	</g>
	<g>
		<path fill="#FFFFFF" stroke="#212020" stroke-width="1.9288" stroke-miterlimit="10" d="M33.355,34.082
			c0-15.396-1.215-14.841,11.224-14.841h58.111c13.294,0,11.225-1.097,11.225,14.841v76.838c0,16.302,1.527,14.842-11.225,14.842
			H44.58c-12.483,0-11.224,1.861-11.224-14.842V34.082z"/>
		<g>
			<path fill-rule="evenodd" clip-rule="evenodd" d="M53.603,74.296c0-0.472,0-0.943,0-1.416c-1.193-0.149-1.607,0.506-2.358,0.472
				c-0.177-0.009-0.367-0.917-0.473-0.944c-0.338-0.087-1.864,0.97-3.302,0.472c0.235-1.77,2.63,0.497,3.302-1.415
				c0.942-0.546,0.708,0.855,0.944,0.943c0.588,0.221,2.739-0.562,3.302,0c0.062,0.062-0.06,0.937,0,0.944
				c0.376,0.039,2.562-0.854,3.302-0.944c1.417-0.17,2.513,0.124,4.247,0c1.442,0.73-2.047,0.416-2.831,0.472
				C57.556,73.217,55.799,73.976,53.603,74.296z"/>
			<path fill-rule="evenodd" clip-rule="evenodd" d="M81.91,71.938c0.255,1.126-0.721,0.74-1.416,0.943
				c-1.288,0.375-3.311,0.473-5.189,0.944c-0.283,0.07-0.477,0.473-0.473,0.472c-0.296,0.044-0.82-0.499-1.415-0.472
				c-0.39,0.018-0.757,0.67-1.414,0.472c-0.244-1.644-3.083-0.691-4.719-0.943c0.626-1.419,3.74-0.35,4.719-1.415
				c0.52-0.02,0.607,1.342,0.942,1.415c0.443,0.099,0.904-0.859,1.416-0.944c0.775-0.128,0.804,0.498,1.416,0.472
				c0.326-0.014,0.545-0.385,0.943-0.472C78.051,72.119,80.271,72.041,81.91,71.938z"/>
			<path fill-rule="evenodd" clip-rule="evenodd" d="M65.87,79.014c0.801-0.174,0.89,0.367,0.942,0.943
				c0.117,0.514,0.939,0.32,0.944,0.943c3.321-0.779,8.107-1.496,11.794-0.471c-0.867,1.202-2.39,0.066-3.302,0
				c-1.844-0.137-3.555-0.012-5.19,0.471c-1.249,0.369-3.154,0.87-5.188,0C65.322,80.202,65.322,79.712,65.87,79.014z"/>
			<path fill-rule="evenodd" clip-rule="evenodd" d="M101.725,79.014c-1.467,2.246-5.977,0.668-8.965,1.416
				c-1.04,0.26-1.566,0.868-2.358,0.943c-0.026,0.002,0.047-0.907,0-0.943c0.397,0.307-2.473,0.293-1.888,0.943
				c-0.568-0.533-0.854-1.347-2.358-0.943c0.36-0.321,0.839-0.874,1.415-0.944c1.041-0.127,1.205,0.464,1.887,0.472
				c0.34,0.004,0.523-0.415,0.944-0.472c0.778-0.104,0.801,0.479,1.415,0.472c0.324-0.004,0.545-0.395,0.943-0.472
				c1.018-0.195,3.717-0.429,4.719,0c0.209,0.089-0.057,0.511,0.471,0.472C98.854,79.893,100.105,78.939,101.725,79.014z"/>
			<path fill-rule="evenodd" clip-rule="evenodd" d="M38.978,80.43c0.203-1.056,2.325-0.191,3.302-0.473
				C42.14,80.55,39.632,81.055,38.978,80.43z"/>
			<path fill-rule="evenodd" clip-rule="evenodd" d="M60.208,87.034c0.015,1.262-1.708,0.423-2.83,0.472
				c-1.065,0.045-2.319,0.887-2.833,0c-1.536,1.478-2.934,0.186-5.661,0.472c-0.629,0-1.259,0-1.887,0
				c0.978-0.974,2.196-0.354,3.302-0.472c1.316-0.141,2.618-0.359,3.775-0.472c0.524-0.052,0.681-0.882,0.943-0.943
				c0.754-0.18,2.084,0.327,2.831,0.472C58.767,86.739,59.454,86.803,60.208,87.034z"/>
			<path fill-rule="evenodd" clip-rule="evenodd" d="M85.684,86.091c1.207-0.021,0.575,0.351,0.472,0.943
				c0.38,0.405,1.292,0.28,1.415,0.943c3.192-0.908,8.162-1.442,11.795-0.472c-1.016,1.243-2.584,0.107-3.775,0
				c-3.395-0.307-6.85,1.794-9.906,0.472C85.138,87.279,85.138,86.788,85.684,86.091z"/>
			<path fill-rule="evenodd" clip-rule="evenodd" d="M42.751,87.034c0.288,1.86-2.589,0.555-3.774,0.943
				C38.689,86.117,41.567,87.422,42.751,87.034z"/>
			<path fill-rule="evenodd" clip-rule="evenodd" d="M55.018,93.639c-0.256,0.955-2.341,0.326-3.774,0.473
				c-1.897,0.193-3.884,0.939-5.662,0.943c-0.144,0-0.853,0.092-0.944,0c-0.086-0.086,0.099-0.914,0-0.943
				c-0.174-0.053-1.228,0.521-1.887,0.471c-0.839-0.062-2.657-1.021-3.302,0.473c-1.713-1.291,2-1.107,2.359-1.887
				c0.88-0.432,1.126,0.892,1.416,0.943c0.292,0.051,1.139-0.528,1.887-0.473c0.291,0.021,1.9,1.032,2.358,0.473
				c0.657-0.804,0.627,0.029,1.416,0C50.945,94.033,52.962,92.838,55.018,93.639z"/>
			<path fill-rule="evenodd" clip-rule="evenodd" d="M69.171,93.639c-0.564,1.729-2.944,0.648-4.718,0.943
				c-1.388,0.232-2.293,0.848-3.302,0.943c0.475-1.419-1.051-0.836-1.887-0.943c0.316-1.715,2.745-0.766,3.303,0
				C64.255,92.705,67.085,94.728,69.171,93.639z"/>
			<path fill-rule="evenodd" clip-rule="evenodd" d="M87.099,99.772c1.19,0.854,2.472,1.617,4.718,1.415
				c-0.35,1.727-3.611,0.824-4.246,0c-1.033-0.225-1.161,0.76-1.887,0.943c-0.691,0.174-1.436-0.633-2.359,0
				c-0.756-1.314,2.037-1.305,1.888-0.472C86.044,101.232,86.672,100.604,87.099,99.772z"/>
			<path fill-rule="evenodd" clip-rule="evenodd" d="M78.607,100.243c0.443,1.626-1.924,0.743-2.83,0.944
				c0.014-0.004-0.217,0.408-0.473,0.472c-0.297,0.073-0.646-0.066-0.943,0c-0.958,0.215-1.387,0.034-2.831,0.472
				c-0.196,0.059-0.566,0.48-0.472,0.472c-0.674,0.06-1.826-1.442-1.887,0c-0.875-1.325-3.506-0.897-5.661-0.943
				c0.002-0.487,0.592-0.331,0.943-0.472c-0.238,0.095,3.801-1.389,4.718-0.472c0.05,0.05-0.035,0.944,0,0.943
				c0.142-0.003,0.777-0.364,0.944-0.472c0.007-0.006,0.675-0.509,0.472-0.472c0.795-0.144,1.028,0.503,1.887,0.472
				c-0.081,0.003,0.195-0.457,0.472-0.472C74.541,100.633,76.446,100.137,78.607,100.243z"/>
			<path fill-rule="evenodd" clip-rule="evenodd" d="M101.252,106.85c1.19,0.854,2.471,1.617,4.719,1.414
				c-0.352,1.727-3.613,0.824-4.246,0c-1.034-0.224-1.161,0.761-1.888,0.943c-0.691,0.175-1.437-0.633-2.358,0
				c-0.756-1.312,2.037-1.305,1.887-0.471C100.197,108.309,100.826,107.68,101.252,106.85z"/>
			<path fill-rule="evenodd" clip-rule="evenodd" d="M51.716,108.264c0.483,1.277-1.317,0.381-2.359,0.473
				c-1.067,0.093-2.64,1.117-2.359-0.473c-2.096,1.954-4.598,0.682-8.493,0.943c0.147-0.641,1.182-0.391,1.888-0.471
				c0.629,0,1.258,0,1.887,0c1.302-0.743,4.069-0.021,4.718-1.416C48.367,107.838,50.345,107.747,51.716,108.264z"/>
			<path fill-rule="evenodd" clip-rule="evenodd" d="M56.433,107.32c1.54-0.125,1,1.831,2.359,1.887
				c3.171-1.095,8.11-1.245,11.795-0.471c-1.017,1.256-2.583,0.09-3.775,0c-1.027-0.079-2.271-0.053-3.302,0
				c-2.062,0.104-4.27,1.842-7.077,0.471C56.433,108.578,56.433,107.949,56.433,107.32z"/>
			<path fill-rule="evenodd" clip-rule="evenodd" d="M90.401,107.793c0.228,1.639-2.015,0.822-2.831,0.943
				c-1.785,0.264-3.037,0.252-5.189,0c-1.021-0.119-3.537-0.312-4.246,0.471c-0.548,0.077-0.839-0.104-0.943-0.471
				c-0.077-0.549,0.104-0.84,0.473-0.943C82.551,107.469,86.153,108.755,90.401,107.793z"/>
			<path fill-rule="evenodd" clip-rule="evenodd" d="M92.289,73.353c1.124,0.431,1.768-0.767,2.83-0.944
				c0.771-0.128,0.805,0.472,1.416,0.472c0.397,0,0.741-0.51,1.414-0.472c0.764,0.044,0.803,0.391,1.416,0.472
				c0.986,0.129,3.514-0.724,3.303,0.944c-1.256-0.882-2.52,0.008-3.774,0c-1.017-0.006-1.208-0.422-1.887-0.472
				c-0.778-0.058-0.798,0.422-1.417,0.472c-0.779,0.062-0.795-0.445-1.415-0.472c0.208,0.009-3.589,1.56-3.302-0.472
				c-1.143,0.588-2.293,1.168-3.774,1.416c-0.109-1.839,2.917-0.544,3.303-1.887C91.643,72.416,93.537,72.147,92.289,73.353z"/>
			<path fill-rule="evenodd" clip-rule="evenodd" d="M61.151,79.957c-0.735,0.646-2.682,1.114-4.718,0.943
				c-0.296-0.023-0.656,0.072-0.943,0c-0.138-0.033-0.683-0.45-0.472-0.471c-0.833,0.082-1.21,0.811-1.887,0.943
				c-1.833,0.358-3.317-0.326-4.718-0.943c-1.946-0.06-2.954,0.82-5.188,0.471c0.077-0.548-0.104-0.839-0.473-0.943
				c1.079-1.647,1.671,1.114,3.302,0.473c0.892-0.523,2.229-0.603,3.303-0.944c1.206,0.053,1.651,0.865,2.359,1.415
				c1.181-0.089,1.72-0.83,2.83-0.943c0.859-0.086,1.433,0.416,2.36,0.473C58.309,80.515,59.591,79.734,61.151,79.957z"/>
			<path fill-rule="evenodd" clip-rule="evenodd" d="M108.801,79.957c-0.129,0.972-1.758,0.444-1.887,1.416
				C105.393,80.564,108.096,80.093,108.801,79.957z"/>
			<path fill-rule="evenodd" clip-rule="evenodd" d="M80.494,86.562c-0.256,0.955-2.341,0.325-3.773,0.472
				c-1.898,0.194-3.884,0.939-5.663,0.943c-0.143,0-0.851,0.091-0.943,0c-0.086-0.086,0.098-0.914,0-0.943
				c-0.146-0.044-1.263,0.493-1.888,0.472c-1.025-0.035-2.525-1.082-3.303,0.472c-1.266-0.994,1.974-1.455,2.831-1.887
				c0.896-0.585,0.769,0.903,0.943,0.943c0.243,0.055,1.176-0.525,1.888-0.472c0.723,0.054,0.843,0.475,1.416,0.472
				c0.769-0.004,0.801-0.444,1.414-0.472c0.755-0.035,0.832,0.523,1.415,0.472c0.348-0.031,0.529-0.382,0.945-0.472
				c1.014-0.221,2.19,0.109,3.301-0.472C79.155,86.643,79.938,86.488,80.494,86.562z"/>
			<path fill-rule="evenodd" clip-rule="evenodd" d="M75.777,95.055c0.053-0.623,0.887-0.307,1.414-0.473
				c1.144-0.359,2.234-1.157,3.303-1.414c0.902-0.58,0.76,0.898,0.943,0.943c0.546,0.133,1.246-0.465,2.358-0.473
				c0.901-0.006,1.366,0.545,1.888,0.473c0.965-0.137,1.749-1.379,2.83-0.943c0.434,1.506-1.335,0.744-1.887,0.943
				c-0.267,0.095-2.16,1.613-2.831,0.943c-0.642-0.644,0.352-1.113-1.415-0.473c-0.415,0.151-0.738,0.567-1.416,0.473
				c-1.045,0.26-0.671-0.9-1.415-0.943C77.884,94.024,76.968,96.107,75.777,95.055z"/>
			<path fill-rule="evenodd" clip-rule="evenodd" d="M98.422,94.582c1.125,0.432,1.77-0.768,2.83-0.943
				c0.771-0.128,0.806,0.473,1.416,0.473c0.397,0,0.741-0.512,1.415-0.473c0.763,0.045,0.802,0.392,1.416,0.473
				c0.985,0.129,3.513-0.725,3.302,0.943c-1.256-0.883-2.519,0.008-3.774,0c-1.016-0.007-1.208-0.422-1.888-0.473
				c-0.777-0.057-0.797,0.422-1.414,0.473c-0.781,0.062-0.797-0.445-1.417-0.473c0.208,0.01-3.589,1.561-3.301-0.471
				c-1.143,0.587-2.292,1.168-3.774,1.414c-0.109-1.839,2.916-0.543,3.303-1.887C97.776,93.646,99.668,93.377,98.422,94.582z"/>
			<path fill-rule="evenodd" clip-rule="evenodd" d="M59.264,100.716c-0.612,1.462-2.997,0.304-5.661,0.472
				c-1.02,0.064-4.086,0.561-5.661,0.943c-1.287,0.344-0.95-0.938-1.888-0.943c-1.206,0.21-2.168,0.661-2.83,1.415
				c-1.876-0.411-2.371-0.411-4.247,0c-0.323-1.207,0.809-0.634,1.416-0.943c0.851-0.435,1.729-1.511,2.831-1.416
				c0.132,0.763-0.447,0.813-0.473,1.416c1.839,0.108,2.446-1.013,3.774-1.416c1.046-0.259,0.672,0.901,1.416,0.944
				C51.355,100.67,55.258,100.641,59.264,100.716z"/>
			<path fill-rule="evenodd" clip-rule="evenodd" d="M109.744,101.188c-0.047,2.088-3.693,0.588-4.718,0.472
				c-0.778-0.089-0.805,0.503-1.415,0.472c-0.918-0.047-1.312-0.492-1.887-0.472c-0.941,0.034-1.57,0.848-2.359,0.943
				c-1.459,0.177-1.95-0.874-3.303-0.472c0.414-1.314,1.895-1.564,3.303-1.888c0.133,0.763-0.445,0.813-0.472,1.416
				c0.903,0.14,1.634-0.009,2.358-0.472c0.296-0.188,0.848-0.613,1.416-0.472c0.213,0.053,0.571,0.476,0.471,0.472
				c0.436,0.019,1.025-0.582,1.888-0.472c0.21,0.026,2.089,0.142,2.359,0.472C107.895,101.809,108.225,101.258,109.744,101.188z"/>
			<path fill-rule="evenodd" clip-rule="evenodd" d="M53.603,29.534c0-0.472,0-0.943,0-1.416c-1.193-0.148-1.607,0.507-2.358,0.472
				c-0.177-0.008-0.367-0.917-0.473-0.943c-0.338-0.087-1.864,0.97-3.302,0.471c0.235-1.77,2.63,0.497,3.302-1.415
				c0.942-0.546,0.708,0.855,0.944,0.943c0.588,0.221,2.739-0.562,3.302,0c0.062,0.062-0.06,0.937,0,0.943
				c0.376,0.039,2.562-0.854,3.302-0.943c1.417-0.169,2.513,0.124,4.247,0c1.442,0.729-2.047,0.416-2.831,0.471
				C57.556,28.456,55.799,29.214,53.603,29.534z"/>
			<path fill-rule="evenodd" clip-rule="evenodd" d="M81.91,27.176c0.255,1.126-0.721,0.741-1.416,0.943
				c-1.288,0.376-3.311,0.474-5.189,0.944c-0.283,0.07-0.477,0.473-0.473,0.472c-0.296,0.043-0.82-0.499-1.415-0.472
				c-0.39,0.018-0.757,0.67-1.414,0.472c-0.244-1.644-3.083-0.691-4.719-0.943c0.626-1.418,3.74-0.35,4.719-1.415
				c0.52-0.02,0.607,1.341,0.942,1.415c0.443,0.098,0.904-0.858,1.416-0.943c0.775-0.129,0.804,0.498,1.416,0.471
				c0.326-0.013,0.545-0.385,0.943-0.471C78.051,27.358,80.271,27.279,81.91,27.176z"/>
			<path fill-rule="evenodd" clip-rule="evenodd" d="M65.87,34.252c0.801-0.173,0.89,0.368,0.942,0.943
				c0.117,0.513,0.939,0.32,0.944,0.943c3.321-0.779,8.107-1.497,11.794-0.471c-0.867,1.203-2.39,0.067-3.302,0
				c-1.844-0.137-3.555-0.011-5.19,0.471c-1.249,0.37-3.154,0.87-5.188,0C65.322,35.441,65.322,34.951,65.87,34.252z"/>
			<path fill-rule="evenodd" clip-rule="evenodd" d="M101.725,34.252c-1.467,2.247-5.977,0.669-8.965,1.416
				c-1.04,0.26-1.566,0.868-2.358,0.943c-0.026,0.002,0.047-0.907,0-0.943c0.397,0.307-2.473,0.294-1.888,0.943
				c-0.568-0.533-0.854-1.347-2.358-0.943c0.36-0.321,0.839-0.874,1.415-0.944c1.041-0.127,1.205,0.464,1.887,0.472
				c0.34,0.004,0.523-0.416,0.944-0.472c0.778-0.104,0.801,0.479,1.415,0.472c0.324-0.004,0.545-0.395,0.943-0.472
				c1.018-0.196,3.717-0.429,4.719,0c0.209,0.089-0.057,0.51,0.471,0.472C98.854,35.13,100.105,34.178,101.725,34.252z"/>
			<path fill-rule="evenodd" clip-rule="evenodd" d="M38.978,35.668c0.203-1.055,2.325-0.191,3.302-0.472
				C42.14,35.789,39.632,36.293,38.978,35.668z"/>
			<path fill-rule="evenodd" clip-rule="evenodd" d="M60.208,42.272c0.015,1.263-1.708,0.423-2.83,0.472
				c-1.065,0.046-2.319,0.887-2.833,0c-1.536,1.478-2.934,0.185-5.661,0.472c-0.629,0-1.259,0-1.887,0
				c0.978-0.973,2.196-0.354,3.302-0.472c1.316-0.14,2.618-0.359,3.775-0.472c0.524-0.051,0.681-0.881,0.943-0.943
				c0.754-0.179,2.084,0.328,2.831,0.472C58.767,41.978,59.454,42.041,60.208,42.272z"/>
			<path fill-rule="evenodd" clip-rule="evenodd" d="M85.684,41.329c1.207-0.021,0.575,0.351,0.472,0.943
				c0.38,0.406,1.292,0.281,1.415,0.943c3.192-0.907,8.162-1.441,11.795-0.472c-1.016,1.243-2.584,0.108-3.775,0
				c-3.395-0.307-6.85,1.794-9.906,0.472C85.138,42.518,85.138,42.027,85.684,41.329z"/>
			<path fill-rule="evenodd" clip-rule="evenodd" d="M42.751,42.272c0.288,1.861-2.589,0.555-3.774,0.943
				C38.689,41.355,41.567,42.662,42.751,42.272z"/>
			<path fill-rule="evenodd" clip-rule="evenodd" d="M55.018,48.877c-0.256,0.955-2.341,0.326-3.774,0.472
				c-1.897,0.194-3.884,0.94-5.662,0.943c-0.144,0-0.853,0.091-0.944,0c-0.086-0.085,0.099-0.914,0-0.943
				c-0.174-0.052-1.228,0.521-1.887,0.471c-0.839-0.063-2.657-1.021-3.302,0.472c-1.713-1.291,2-1.107,2.359-1.887
				c0.88-0.431,1.126,0.893,1.416,0.944c0.292,0.052,1.139-0.528,1.887-0.472c0.291,0.022,1.9,1.032,2.358,0.472
				c0.657-0.803,0.627,0.03,1.416,0C50.945,49.271,52.962,48.077,55.018,48.877z"/>
			<path fill-rule="evenodd" clip-rule="evenodd" d="M69.171,48.877c-0.564,1.729-2.944,0.648-4.718,0.943
				c-1.388,0.232-2.293,0.848-3.302,0.943c0.475-1.418-1.051-0.835-1.887-0.943c0.316-1.715,2.745-0.766,3.303,0
				C64.255,47.944,67.085,49.966,69.171,48.877z"/>
			<path fill-rule="evenodd" clip-rule="evenodd" d="M87.099,55.011c1.19,0.854,2.472,1.617,4.718,1.415
				c-0.35,1.727-3.611,0.824-4.246,0c-1.033-0.223-1.161,0.76-1.887,0.943c-0.691,0.174-1.436-0.632-2.359,0
				c-0.756-1.313,2.037-1.305,1.888-0.472C86.044,56.472,86.672,55.842,87.099,55.011z"/>
			<path fill-rule="evenodd" clip-rule="evenodd" d="M78.607,55.481c0.443,1.626-1.924,0.744-2.83,0.944
				c0.014-0.003-0.217,0.409-0.473,0.472c-0.297,0.074-0.646-0.066-0.943,0c-0.958,0.215-1.387,0.035-2.831,0.472
				c-0.196,0.059-0.566,0.481-0.472,0.472c-0.674,0.06-1.826-1.442-1.887,0c-0.875-1.326-3.506-0.898-5.661-0.944
				c0.002-0.486,0.592-0.331,0.943-0.472c-0.238,0.095,3.801-1.388,4.718-0.472c0.05,0.05-0.035,0.945,0,0.943
				c0.142-0.003,0.777-0.364,0.944-0.472c0.007-0.005,0.675-0.508,0.472-0.472c0.795-0.143,1.028,0.502,1.887,0.472
				c-0.081,0.003,0.195-0.457,0.472-0.472C74.541,55.871,76.446,55.375,78.607,55.481z"/>
			<path fill-rule="evenodd" clip-rule="evenodd" d="M101.252,62.087c1.19,0.854,2.471,1.618,4.719,1.415
				c-0.352,1.727-3.613,0.825-4.246,0c-1.034-0.224-1.161,0.761-1.888,0.943c-0.691,0.174-1.437-0.632-2.358,0
				c-0.756-1.313,2.037-1.304,1.887-0.471C100.197,63.548,100.826,62.919,101.252,62.087z"/>
			<path fill-rule="evenodd" clip-rule="evenodd" d="M51.716,63.502c0.483,1.277-1.317,0.38-2.359,0.472
				c-1.067,0.094-2.64,1.117-2.359-0.472c-2.096,1.954-4.598,0.682-8.493,0.943c0.147-0.64,1.182-0.392,1.888-0.471
				c0.629,0,1.258,0,1.887,0c1.302-0.742,4.069-0.02,4.718-1.416C48.367,63.076,50.345,62.985,51.716,63.502z"/>
			<path fill-rule="evenodd" clip-rule="evenodd" d="M56.433,62.559c1.54-0.124,1,1.832,2.359,1.887
				c3.171-1.095,8.11-1.245,11.795-0.471c-1.017,1.256-2.583,0.091-3.775,0c-1.027-0.079-2.271-0.052-3.302,0
				c-2.062,0.104-4.27,1.842-7.077,0.471C56.433,63.817,56.433,63.188,56.433,62.559z"/>
			<path fill-rule="evenodd" clip-rule="evenodd" d="M90.401,63.031c0.228,1.639-2.015,0.822-2.831,0.943
				c-1.785,0.265-3.037,0.252-5.189,0c-1.021-0.12-3.537-0.311-4.246,0.471c-0.548,0.077-0.839-0.104-0.943-0.471
				c-0.077-0.549,0.104-0.84,0.473-0.943C82.551,62.707,86.153,63.994,90.401,63.031z"/>
			<path fill-rule="evenodd" clip-rule="evenodd" d="M92.289,28.591c1.124,0.431,1.768-0.767,2.83-0.943
				c0.771-0.128,0.805,0.471,1.416,0.471c0.397,0,0.741-0.51,1.414-0.471c0.764,0.044,0.803,0.391,1.416,0.471
				c0.986,0.13,3.514-0.724,3.303,0.944c-1.256-0.882-2.52,0.008-3.774,0c-1.017-0.006-1.208-0.421-1.887-0.472
				c-0.778-0.057-0.798,0.422-1.417,0.472c-0.779,0.063-0.795-0.445-1.415-0.472c0.208,0.009-3.589,1.561-3.302-0.472
				c-1.143,0.588-2.293,1.168-3.774,1.416c-0.109-1.839,2.917-0.543,3.303-1.887C91.643,27.654,93.537,27.386,92.289,28.591z"/>
			<path fill-rule="evenodd" clip-rule="evenodd" d="M61.151,35.196c-0.735,0.646-2.682,1.114-4.718,0.943
				c-0.296-0.024-0.656,0.072-0.943,0c-0.138-0.034-0.683-0.451-0.472-0.471c-0.833,0.083-1.21,0.811-1.887,0.943
				c-1.833,0.358-3.317-0.325-4.718-0.943c-1.946-0.06-2.954,0.82-5.188,0.471c0.077-0.548-0.104-0.839-0.473-0.943
				c1.079-1.648,1.671,1.114,3.302,0.472c0.892-0.523,2.229-0.602,3.303-0.944c1.206,0.053,1.651,0.865,2.359,1.415
				c1.181-0.089,1.72-0.831,2.83-0.943c0.859-0.087,1.433,0.415,2.36,0.472C58.309,35.753,59.591,34.973,61.151,35.196z"/>
			<path fill-rule="evenodd" clip-rule="evenodd" d="M108.801,35.196c-0.129,0.971-1.758,0.444-1.887,1.416
				C105.393,35.803,108.096,35.331,108.801,35.196z"/>
			<path fill-rule="evenodd" clip-rule="evenodd" d="M80.494,41.801c-0.256,0.954-2.341,0.325-3.773,0.471
				c-1.898,0.194-3.884,0.94-5.663,0.943c-0.143,0-0.851,0.092-0.943,0c-0.086-0.085,0.098-0.914,0-0.943
				c-0.146-0.043-1.263,0.493-1.888,0.472c-1.025-0.035-2.525-1.082-3.303,0.472c-1.266-0.994,1.974-1.455,2.831-1.887
				c0.896-0.584,0.769,0.904,0.943,0.943c0.243,0.055,1.176-0.525,1.888-0.471c0.723,0.054,0.843,0.474,1.416,0.471
				c0.769-0.003,0.801-0.444,1.414-0.471c0.755-0.035,0.832,0.523,1.415,0.471c0.348-0.031,0.529-0.381,0.945-0.471
				c1.014-0.222,2.19,0.109,3.301-0.472C79.155,41.882,79.938,41.728,80.494,41.801z"/>
			<path fill-rule="evenodd" clip-rule="evenodd" d="M75.777,50.293c0.053-0.624,0.887-0.307,1.414-0.472
				c1.144-0.359,2.234-1.158,3.303-1.415c0.902-0.579,0.76,0.898,0.943,0.944c0.546,0.133,1.246-0.464,2.358-0.472
				c0.901-0.006,1.366,0.545,1.888,0.472c0.965-0.137,1.749-1.378,2.83-0.944c0.434,1.508-1.335,0.746-1.887,0.944
				c-0.267,0.095-2.16,1.614-2.831,0.943c-0.642-0.643,0.352-1.114-1.415-0.472c-0.415,0.151-0.738,0.568-1.416,0.472
				c-1.045,0.26-0.671-0.901-1.415-0.943C77.884,49.263,76.968,51.346,75.777,50.293z"/>
			<path fill-rule="evenodd" clip-rule="evenodd" d="M98.422,49.821c1.125,0.432,1.77-0.767,2.83-0.943
				c0.771-0.128,0.806,0.472,1.416,0.472c0.397,0,0.741-0.512,1.415-0.472c0.763,0.044,0.802,0.392,1.416,0.472
				c0.985,0.129,3.513-0.725,3.302,0.943c-1.256-0.883-2.519,0.008-3.774,0c-1.016-0.007-1.208-0.421-1.888-0.472
				c-0.777-0.057-0.797,0.422-1.414,0.472c-0.781,0.063-0.797-0.445-1.417-0.472c0.208,0.009-3.589,1.561-3.301-0.471
				c-1.143,0.587-2.292,1.167-3.774,1.415c-0.109-1.839,2.916-0.543,3.303-1.887C97.776,48.885,99.668,48.616,98.422,49.821z"/>
			<path fill-rule="evenodd" clip-rule="evenodd" d="M59.264,55.954c-0.612,1.462-2.997,0.304-5.661,0.472
				c-1.02,0.065-4.086,0.561-5.661,0.943c-1.287,0.344-0.95-0.938-1.888-0.943c-1.206,0.21-2.168,0.662-2.83,1.416
				c-1.876-0.411-2.371-0.411-4.247,0c-0.323-1.207,0.809-0.634,1.416-0.944c0.851-0.435,1.729-1.51,2.831-1.416
				c0.132,0.763-0.447,0.813-0.473,1.416c1.839,0.109,2.446-1.013,3.774-1.416c1.046-0.258,0.672,0.902,1.416,0.944
				C51.355,55.909,55.258,55.88,59.264,55.954z"/>
			<path fill-rule="evenodd" clip-rule="evenodd" d="M109.744,56.426c-0.047,2.087-3.693,0.588-4.718,0.472
				c-0.778-0.088-0.805,0.503-1.415,0.472c-0.918-0.046-1.312-0.492-1.887-0.472c-0.941,0.034-1.57,0.848-2.359,0.944
				c-1.459,0.177-1.95-0.874-3.303-0.472c0.414-1.314,1.895-1.564,3.303-1.888c0.133,0.763-0.445,0.813-0.472,1.416
				c0.903,0.139,1.634-0.009,2.358-0.472c0.296-0.188,0.848-0.614,1.416-0.472c0.213,0.053,0.571,0.476,0.471,0.472
				c0.436,0.02,1.025-0.582,1.888-0.472c0.21,0.027,2.089,0.142,2.359,0.472C107.895,57.048,108.225,56.497,109.744,56.426z"/>
		</g>
	</g>
	<g>
		<path fill="#FFFFFF" stroke="#212020" stroke-width="1.9288" stroke-miterlimit="10" d="M24.836,46.064
			c0-15.396-1.215-14.841,11.225-14.841h58.111c13.294,0,11.225-1.097,11.225,14.841v76.839c0,16.302,1.527,14.843-11.225,14.843
			H36.061c-12.483,0-11.225,1.859-11.225-14.843V46.064z"/>
		<g>
			<path fill-rule="evenodd" clip-rule="evenodd" d="M45.084,90.283c0-0.473,0-0.944,0-1.416c-1.193-0.148-1.607,0.507-2.359,0.472
				c-0.177-0.007-0.367-0.916-0.472-0.942c-0.338-0.088-1.864,0.969-3.302,0.471c0.235-1.771,2.63,0.497,3.302-1.414
				c0.942-0.548,0.708,0.854,0.944,0.943c0.588,0.22,2.739-0.563,3.302,0c0.062,0.062-0.059,0.936,0,0.942
				c0.376,0.04,2.562-0.854,3.302-0.942c1.417-0.171,2.513,0.123,4.247,0c1.442,0.729-2.047,0.414-2.831,0.471
				C49.037,89.204,47.28,89.963,45.084,90.283z"/>
			<path fill-rule="evenodd" clip-rule="evenodd" d="M73.391,87.924c0.256,1.126-0.72,0.74-1.415,0.943
				c-1.289,0.376-3.311,0.475-5.191,0.943c-0.282,0.07-0.476,0.473-0.471,0.473c-0.296,0.043-0.82-0.5-1.416-0.473
				c-0.389,0.018-0.757,0.67-1.414,0.473c-0.244-1.645-3.083-0.692-4.718-0.944c0.625-1.419,3.74-0.349,4.718-1.415
				c0.521-0.02,0.607,1.342,0.943,1.415c0.442,0.099,0.904-0.858,1.416-0.942c0.775-0.13,0.804,0.497,1.415,0.471
				c0.328-0.014,0.546-0.385,0.944-0.471C69.533,88.105,71.753,88.027,73.391,87.924z"/>
			<path fill-rule="evenodd" clip-rule="evenodd" d="M57.351,95c0.801-0.174,0.89,0.369,0.942,0.944
				c0.117,0.513,0.938,0.319,0.943,0.943c3.322-0.779,8.108-1.497,11.795-0.472c-0.868,1.202-2.389,0.066-3.302,0
				c-1.844-0.137-3.555-0.011-5.19,0.472c-1.249,0.368-3.155,0.869-5.188,0C56.804,96.189,56.804,95.699,57.351,95z"/>
			<path fill-rule="evenodd" clip-rule="evenodd" d="M93.205,95c-1.467,2.248-5.977,0.669-8.963,1.416
				c-1.041,0.26-1.567,0.869-2.359,0.943c-0.027,0.003,0.047-0.907,0-0.943c0.396,0.308-2.473,0.295-1.888,0.943
				c-0.568-0.533-0.854-1.347-2.358-0.943c0.359-0.32,0.838-0.873,1.415-0.943c1.041-0.127,1.205,0.465,1.887,0.472
				c0.339,0.003,0.523-0.416,0.944-0.472c0.779-0.104,0.801,0.479,1.414,0.472c0.326-0.004,0.546-0.396,0.945-0.472
				c1.018-0.196,3.717-0.43,4.717,0c0.209,0.089-0.055,0.51,0.472,0.472C90.336,95.879,91.588,94.927,93.205,95z"/>
			<path fill-rule="evenodd" clip-rule="evenodd" d="M30.459,96.416c0.203-1.056,2.325-0.191,3.302-0.472
				C33.621,96.536,31.114,97.042,30.459,96.416z"/>
			<path fill-rule="evenodd" clip-rule="evenodd" d="M51.689,103.021c0.014,1.262-1.708,0.423-2.831,0.471
				c-1.064,0.047-2.318,0.888-2.832,0c-1.536,1.479-2.934,0.186-5.661,0.472c-0.629,0-1.259,0-1.887,0
				c0.978-0.973,2.196-0.354,3.302-0.472c1.315-0.141,2.618-0.359,3.774-0.471c0.525-0.053,0.682-0.883,0.943-0.943
				c0.754-0.18,2.084,0.326,2.831,0.471C50.249,102.727,50.935,102.789,51.689,103.021z"/>
			<path fill-rule="evenodd" clip-rule="evenodd" d="M77.164,102.078c1.207-0.021,0.576,0.35,0.473,0.943
				c0.38,0.404,1.293,0.279,1.415,0.942c3.192-0.908,8.161-1.44,11.794-0.472c-1.016,1.244-2.584,0.107-3.773,0
				c-3.396-0.307-6.852,1.795-9.908,0.472C76.618,103.266,76.618,102.775,77.164,102.078z"/>
			<path fill-rule="evenodd" clip-rule="evenodd" d="M34.233,103.021c0.288,1.859-2.589,0.555-3.774,0.942
				C30.17,102.104,33.048,103.41,34.233,103.021z"/>
			<path fill-rule="evenodd" clip-rule="evenodd" d="M46.499,109.625c-0.255,0.955-2.341,0.326-3.774,0.473
				c-1.898,0.193-3.883,0.94-5.661,0.943c-0.144,0-0.853,0.092-0.944,0c-0.086-0.086,0.1-0.914,0-0.943
				c-0.174-0.053-1.228,0.521-1.887,0.472c-0.839-0.063-2.657-1.021-3.303,0.472c-1.712-1.291,2-1.106,2.359-1.887
				c0.879-0.432,1.126,0.892,1.416,0.943c0.292,0.051,1.139-0.528,1.887-0.473c0.291,0.023,1.9,1.032,2.358,0.473
				c0.657-0.803,0.627,0.03,1.416,0C42.427,110.02,44.444,108.825,46.499,109.625z"/>
			<path fill-rule="evenodd" clip-rule="evenodd" d="M60.652,109.625c-0.563,1.73-2.944,0.648-4.717,0.944
				c-1.389,0.231-2.293,0.847-3.302,0.943c0.475-1.419-1.051-0.836-1.888-0.943c0.317-1.716,2.745-0.767,3.303,0
				C55.736,108.693,58.566,110.715,60.652,109.625z"/>
			<path fill-rule="evenodd" clip-rule="evenodd" d="M78.58,115.759c1.189,0.854,2.471,1.618,4.717,1.415
				c-0.35,1.727-3.611,0.824-4.245,0c-1.034-0.224-1.161,0.761-1.888,0.943c-0.691,0.175-1.436-0.632-2.359,0
				c-0.754-1.314,2.039-1.305,1.889-0.471C77.525,117.22,78.153,116.59,78.58,115.759z"/>
			<path fill-rule="evenodd" clip-rule="evenodd" d="M70.088,116.23c0.444,1.626-1.923,0.743-2.831,0.943
				c0.016-0.004-0.216,0.408-0.473,0.473c-0.296,0.073-0.645-0.066-0.942,0c-0.958,0.215-1.387,0.033-2.831,0.471
				c-0.196,0.06-0.566,0.48-0.472,0.473c-0.674,0.06-1.826-1.443-1.888,0c-0.875-1.326-3.506-0.898-5.661-0.943
				c0.002-0.486,0.592-0.332,0.943-0.473c-0.238,0.096,3.801-1.389,4.717-0.471c0.051,0.05-0.035,0.943,0,0.943
				c0.142-0.004,0.777-0.365,0.944-0.473c0.008-0.004,0.675-0.508,0.472-0.471c0.794-0.145,1.027,0.502,1.887,0.471
				c-0.081,0.003,0.194-0.457,0.472-0.471C66.022,116.619,67.928,116.123,70.088,116.23z"/>
			<path fill-rule="evenodd" clip-rule="evenodd" d="M92.734,122.836c1.189,0.854,2.471,1.617,4.717,1.414
				c-0.35,1.728-3.612,0.826-4.246,0c-1.034-0.223-1.16,0.762-1.887,0.944c-0.691,0.175-1.436-0.632-2.359,0
				c-0.755-1.313,2.038-1.304,1.887-0.472C91.678,124.296,92.307,123.668,92.734,122.836z"/>
			<path fill-rule="evenodd" clip-rule="evenodd" d="M43.197,124.25c0.482,1.277-1.317,0.381-2.359,0.473
				c-1.067,0.094-2.64,1.117-2.359-0.473c-2.096,1.955-4.599,0.682-8.493,0.944c0.146-0.64,1.182-0.392,1.887-0.472
				c0.628,0,1.258,0,1.887,0c1.302-0.742,4.069-0.02,4.719-1.416C39.849,123.824,41.827,123.733,43.197,124.25z"/>
			<path fill-rule="evenodd" clip-rule="evenodd" d="M47.915,123.307c1.54-0.124,1,1.832,2.358,1.888
				c3.17-1.096,8.111-1.245,11.795-0.472c-1.018,1.256-2.583,0.091-3.775,0c-1.028-0.079-2.271-0.053-3.302,0
				c-2.062,0.104-4.27,1.842-7.077,0.472C47.915,124.565,47.915,123.938,47.915,123.307z"/>
			<path fill-rule="evenodd" clip-rule="evenodd" d="M81.883,123.779c0.229,1.64-2.014,0.822-2.831,0.943
				c-1.786,0.266-3.037,0.252-5.188,0c-1.023-0.119-3.538-0.311-4.247,0.472c-0.548,0.077-0.839-0.104-0.944-0.472
				c-0.077-0.549,0.104-0.84,0.472-0.943C74.031,123.455,77.635,124.741,81.883,123.779z"/>
			<path fill-rule="evenodd" clip-rule="evenodd" d="M83.77,89.339c1.125,0.432,1.77-0.767,2.831-0.942
				c0.772-0.129,0.806,0.471,1.415,0.471c0.398,0,0.742-0.51,1.415-0.471c0.763,0.043,0.802,0.391,1.415,0.471
				c0.986,0.13,3.514-0.725,3.303,0.943c-1.255-0.883-2.519,0.008-3.773,0c-1.016-0.006-1.208-0.422-1.887-0.472
				c-0.778-0.058-0.799,0.423-1.416,0.472c-0.78,0.063-0.797-0.445-1.416-0.472c0.207,0.01-3.589,1.561-3.302-0.472
				c-1.142,0.588-2.292,1.168-3.774,1.416c-0.109-1.84,2.916-0.545,3.303-1.887C83.125,88.402,85.018,88.135,83.77,89.339z"/>
			<path fill-rule="evenodd" clip-rule="evenodd" d="M52.632,95.944c-0.735,0.646-2.682,1.113-4.718,0.943
				c-0.296-0.024-0.656,0.071-0.943,0c-0.138-0.034-0.683-0.45-0.472-0.472c-0.832,0.083-1.21,0.812-1.887,0.943
				c-1.833,0.359-3.317-0.325-4.719-0.943c-1.945-0.059-2.954,0.82-5.188,0.472c0.076-0.549-0.105-0.839-0.473-0.943
				c1.079-1.647,1.671,1.114,3.302,0.472c0.893-0.523,2.23-0.603,3.304-0.943c1.206,0.053,1.65,0.865,2.359,1.415
				c1.18-0.089,1.72-0.831,2.83-0.943c0.859-0.087,1.433,0.415,2.359,0.472C49.79,96.502,51.073,95.721,52.632,95.944z"/>
			<path fill-rule="evenodd" clip-rule="evenodd" d="M100.281,95.944c-0.129,0.972-1.757,0.444-1.886,1.415
				C96.873,96.551,99.576,96.08,100.281,95.944z"/>
			<path fill-rule="evenodd" clip-rule="evenodd" d="M71.976,102.549c-0.257,0.955-2.342,0.325-3.775,0.473
				c-1.898,0.193-3.884,0.939-5.662,0.942c-0.143,0.001-0.852,0.093-0.943,0c-0.085-0.085,0.099-0.914,0-0.942
				c-0.145-0.044-1.263,0.492-1.887,0.471c-1.025-0.035-2.526-1.082-3.303,0.472c-1.266-0.993,1.973-1.455,2.83-1.886
				c0.897-0.585,0.77,0.903,0.944,0.943c0.243,0.055,1.176-0.525,1.888-0.473c0.722,0.055,0.843,0.475,1.416,0.473
				c0.768-0.004,0.801-0.445,1.414-0.473c0.754-0.034,0.833,0.523,1.416,0.473c0.348-0.031,0.528-0.383,0.944-0.473
				c1.016-0.221,2.192,0.109,3.303-0.471C70.637,102.63,71.42,102.475,71.976,102.549z"/>
			<path fill-rule="evenodd" clip-rule="evenodd" d="M67.257,111.041c0.054-0.623,0.888-0.307,1.415-0.472
				c1.144-0.359,2.234-1.158,3.304-1.415c0.901-0.58,0.759,0.898,0.942,0.943c0.546,0.134,1.248-0.464,2.359-0.473
				c0.901-0.006,1.365,0.545,1.887,0.473c0.966-0.137,1.749-1.379,2.831-0.943c0.433,1.507-1.335,0.745-1.886,0.943
				c-0.268,0.096-2.161,1.613-2.832,0.943c-0.643-0.643,0.352-1.113-1.414-0.472c-0.416,0.151-0.738,0.567-1.417,0.472
				c-1.046,0.26-0.672-0.9-1.416-0.943C69.365,110.012,68.449,112.094,67.257,111.041z"/>
			<path fill-rule="evenodd" clip-rule="evenodd" d="M89.902,110.569c1.125,0.431,1.77-0.767,2.832-0.944
				c0.771-0.127,0.804,0.473,1.414,0.473c0.398,0,0.741-0.512,1.415-0.473c0.764,0.045,0.802,0.393,1.417,0.473
				c0.984,0.129,3.513-0.725,3.301,0.943c-1.256-0.883-2.519,0.008-3.773,0c-1.016-0.006-1.207-0.421-1.888-0.472
				c-0.776-0.058-0.798,0.421-1.415,0.472c-0.779,0.062-0.797-0.445-1.416-0.472c0.208,0.009-3.588,1.561-3.301-0.472
				c-1.143,0.588-2.293,1.168-3.774,1.415c-0.11-1.84,2.915-0.544,3.302-1.888C89.257,109.633,91.15,109.363,89.902,110.569z"/>
			<path fill-rule="evenodd" clip-rule="evenodd" d="M50.745,116.703c-0.612,1.461-2.997,0.303-5.661,0.471
				c-1.02,0.065-4.086,0.561-5.662,0.943c-1.287,0.344-0.949-0.938-1.887-0.943c-1.205,0.211-2.167,0.661-2.829,1.416
				c-1.877-0.412-2.371-0.412-4.247,0c-0.323-1.207,0.809-0.635,1.415-0.943c0.851-0.436,1.729-1.511,2.832-1.416
				c0.132,0.762-0.447,0.812-0.473,1.416c1.838,0.108,2.446-1.014,3.774-1.416c1.046-0.26,0.672,0.9,1.415,0.943
				C42.837,116.656,46.739,116.629,50.745,116.703z"/>
			<path fill-rule="evenodd" clip-rule="evenodd" d="M101.226,117.174c-0.047,2.088-3.693,0.588-4.718,0.473
				c-0.777-0.089-0.805,0.502-1.415,0.471c-0.919-0.047-1.313-0.492-1.888-0.471c-0.941,0.033-1.569,0.848-2.359,0.943
				c-1.459,0.176-1.949-0.875-3.303-0.473c0.416-1.314,1.896-1.564,3.303-1.887c0.134,0.762-0.445,0.812-0.471,1.416
				c0.904,0.139,1.633-0.01,2.359-0.473c0.295-0.188,0.848-0.613,1.414-0.471c0.213,0.053,0.572,0.475,0.472,0.471
				c0.437,0.02,1.025-0.582,1.888-0.471c0.209,0.026,2.09,0.141,2.359,0.471C99.375,117.797,99.706,117.244,101.226,117.174z"/>
			<path fill-rule="evenodd" clip-rule="evenodd" d="M45.084,45.521c0-0.472,0-0.944,0-1.416c-1.193-0.149-1.607,0.507-2.359,0.471
				c-0.177-0.007-0.367-0.916-0.472-0.943c-0.338-0.087-1.864,0.97-3.302,0.472c0.235-1.771,2.63,0.498,3.302-1.415
				c0.942-0.547,0.708,0.854,0.944,0.943c0.588,0.22,2.739-0.563,3.302,0c0.062,0.062-0.059,0.938,0,0.943
				c0.376,0.04,2.562-0.854,3.302-0.943c1.417-0.169,2.513,0.124,4.247,0c1.442,0.729-2.047,0.416-2.831,0.472
				C49.037,44.442,47.28,45.201,45.084,45.521z"/>
			<path fill-rule="evenodd" clip-rule="evenodd" d="M73.391,43.162c0.256,1.126-0.72,0.741-1.415,0.944
				c-1.289,0.376-3.311,0.474-5.191,0.944c-0.282,0.07-0.476,0.472-0.471,0.472c-0.296,0.044-0.82-0.499-1.416-0.472
				c-0.389,0.018-0.757,0.67-1.414,0.472c-0.244-1.645-3.083-0.692-4.718-0.944c0.625-1.418,3.74-0.349,4.718-1.415
				c0.521-0.02,0.607,1.341,0.943,1.415c0.442,0.099,0.904-0.858,1.416-0.943c0.775-0.129,0.804,0.499,1.415,0.472
				c0.328-0.014,0.546-0.386,0.944-0.472C69.533,43.345,71.753,43.266,73.391,43.162z"/>
			<path fill-rule="evenodd" clip-rule="evenodd" d="M57.351,50.239c0.801-0.174,0.89,0.368,0.942,0.943
				c0.117,0.512,0.938,0.32,0.943,0.943c3.322-0.779,8.108-1.497,11.795-0.472c-0.868,1.203-2.389,0.067-3.302,0
				c-1.844-0.136-3.555-0.011-5.19,0.472c-1.249,0.369-3.155,0.869-5.188,0C56.804,51.428,56.804,50.938,57.351,50.239z"/>
			<path fill-rule="evenodd" clip-rule="evenodd" d="M93.205,50.239c-1.467,2.247-5.977,0.669-8.963,1.415
				c-1.041,0.261-1.567,0.869-2.359,0.944c-0.027,0.002,0.047-0.907,0-0.944c0.396,0.308-2.473,0.295-1.888,0.944
				c-0.568-0.533-0.854-1.347-2.358-0.944c0.359-0.32,0.838-0.874,1.415-0.944c1.041-0.126,1.205,0.465,1.887,0.472
				c0.339,0.004,0.523-0.416,0.944-0.472c0.779-0.104,0.801,0.48,1.414,0.472c0.326-0.003,0.546-0.395,0.945-0.472
				c1.018-0.196,3.717-0.429,4.717,0c0.209,0.09-0.055,0.51,0.472,0.472C90.336,51.117,91.588,50.166,93.205,50.239z"/>
			<path fill-rule="evenodd" clip-rule="evenodd" d="M30.459,51.654c0.203-1.055,2.325-0.191,3.302-0.472
				C33.621,51.775,31.114,52.28,30.459,51.654z"/>
			<path fill-rule="evenodd" clip-rule="evenodd" d="M51.689,58.259c0.014,1.262-1.708,0.423-2.831,0.472
				c-1.064,0.046-2.318,0.887-2.832,0c-1.536,1.478-2.934,0.186-5.661,0.472c-0.629,0-1.259,0-1.887,0
				c0.978-0.974,2.196-0.354,3.302-0.472c1.315-0.14,2.618-0.359,3.774-0.472c0.525-0.051,0.682-0.881,0.943-0.943
				c0.754-0.179,2.084,0.328,2.831,0.472C50.249,57.965,50.935,58.028,51.689,58.259z"/>
			<path fill-rule="evenodd" clip-rule="evenodd" d="M77.164,57.316c1.207-0.021,0.576,0.35,0.473,0.943
				c0.38,0.406,1.293,0.28,1.415,0.944c3.192-0.908,8.161-1.442,11.794-0.472c-1.016,1.244-2.584,0.108-3.773,0
				c-3.396-0.307-6.852,1.794-9.908,0.472C76.618,58.505,76.618,58.014,77.164,57.316z"/>
			<path fill-rule="evenodd" clip-rule="evenodd" d="M34.233,58.259c0.288,1.86-2.589,0.555-3.774,0.944
				C30.17,57.342,33.048,58.648,34.233,58.259z"/>
			<path fill-rule="evenodd" clip-rule="evenodd" d="M46.499,64.864c-0.255,0.955-2.341,0.326-3.774,0.473
				c-1.898,0.193-3.883,0.94-5.661,0.943c-0.144,0-0.853,0.091-0.944,0c-0.086-0.085,0.1-0.914,0-0.943
				c-0.174-0.053-1.228,0.521-1.887,0.471c-0.839-0.063-2.657-1.021-3.303,0.472c-1.712-1.292,2-1.107,2.359-1.887
				c0.879-0.431,1.126,0.892,1.416,0.943c0.292,0.052,1.139-0.528,1.887-0.473c0.291,0.022,1.9,1.032,2.358,0.473
				c0.657-0.803,0.627,0.03,1.416,0C42.427,65.258,44.444,64.063,46.499,64.864z"/>
			<path fill-rule="evenodd" clip-rule="evenodd" d="M60.652,64.864c-0.563,1.729-2.944,0.649-4.717,0.944
				c-1.389,0.232-2.293,0.848-3.302,0.943c0.475-1.418-1.051-0.835-1.888-0.943c0.317-1.715,2.745-0.766,3.303,0
				C55.736,63.931,58.566,65.953,60.652,64.864z"/>
			<path fill-rule="evenodd" clip-rule="evenodd" d="M78.58,70.997c1.189,0.855,2.471,1.618,4.717,1.415
				c-0.35,1.727-3.611,0.825-4.245,0c-1.034-0.223-1.161,0.762-1.888,0.943c-0.691,0.175-1.436-0.632-2.359,0
				c-0.754-1.313,2.039-1.304,1.889-0.471C77.525,72.459,78.153,71.829,78.58,70.997z"/>
			<path fill-rule="evenodd" clip-rule="evenodd" d="M70.088,71.469c0.444,1.627-1.923,0.743-2.831,0.943
				c0.016-0.002-0.216,0.409-0.473,0.473c-0.296,0.074-0.645-0.066-0.942,0c-0.958,0.215-1.387,0.034-2.831,0.471
				c-0.196,0.06-0.566,0.48-0.472,0.473c-0.674,0.06-1.826-1.443-1.888,0c-0.875-1.326-3.506-0.897-5.661-0.943
				c0.002-0.487,0.592-0.331,0.943-0.473c-0.238,0.096,3.801-1.388,4.717-0.471c0.051,0.05-0.035,0.944,0,0.943
				c0.142-0.003,0.777-0.365,0.944-0.473c0.008-0.004,0.675-0.508,0.472-0.471c0.794-0.144,1.027,0.502,1.887,0.471
				c-0.081,0.003,0.194-0.457,0.472-0.471C66.022,71.857,67.928,71.362,70.088,71.469z"/>
			<path fill-rule="evenodd" clip-rule="evenodd" d="M92.734,78.074c1.189,0.854,2.471,1.617,4.717,1.414
				c-0.35,1.728-3.612,0.826-4.246,0c-1.034-0.223-1.16,0.762-1.887,0.945c-0.691,0.174-1.436-0.633-2.359,0
				c-0.755-1.314,2.038-1.305,1.887-0.473C91.678,79.535,92.307,78.906,92.734,78.074z"/>
			<path fill-rule="evenodd" clip-rule="evenodd" d="M43.197,79.488c0.482,1.277-1.317,0.381-2.359,0.473
				c-1.067,0.094-2.64,1.117-2.359-0.473c-2.096,1.955-4.599,0.683-8.493,0.945c0.146-0.641,1.182-0.393,1.887-0.473
				c0.628,0,1.258,0,1.887,0c1.302-0.742,4.069-0.02,4.719-1.416C39.849,79.062,41.827,78.972,43.197,79.488z"/>
			<path fill-rule="evenodd" clip-rule="evenodd" d="M47.915,78.545c1.54-0.124,1,1.832,2.358,1.889
				c3.17-1.096,8.111-1.246,11.795-0.473c-1.018,1.256-2.583,0.092-3.775,0c-1.028-0.078-2.271-0.052-3.302,0
				c-2.062,0.105-4.27,1.843-7.077,0.473C47.915,79.805,47.915,79.176,47.915,78.545z"/>
			<path fill-rule="evenodd" clip-rule="evenodd" d="M81.883,79.018c0.229,1.64-2.014,0.822-2.831,0.943
				c-1.786,0.266-3.037,0.252-5.188,0c-1.023-0.119-3.538-0.311-4.247,0.473c-0.548,0.076-0.839-0.105-0.944-0.473
				c-0.077-0.549,0.104-0.84,0.472-0.943C74.031,78.693,77.635,79.98,81.883,79.018z"/>
			<path fill-rule="evenodd" clip-rule="evenodd" d="M83.77,44.577c1.125,0.432,1.77-0.767,2.831-0.943
				c0.772-0.128,0.806,0.472,1.415,0.472c0.398,0,0.742-0.511,1.415-0.472c0.763,0.044,0.802,0.391,1.415,0.472
				c0.986,0.13,3.514-0.724,3.303,0.944c-1.255-0.883-2.519,0.008-3.773,0c-1.016-0.006-1.208-0.421-1.887-0.473
				C87.71,44.52,87.689,45,87.072,45.05c-0.78,0.063-0.797-0.445-1.416-0.473c0.207,0.01-3.589,1.562-3.302-0.471
				c-1.142,0.588-2.292,1.168-3.774,1.416c-0.109-1.839,2.916-0.544,3.303-1.887C83.125,43.642,85.018,43.373,83.77,44.577z"/>
			<path fill-rule="evenodd" clip-rule="evenodd" d="M52.632,51.183c-0.735,0.646-2.682,1.114-4.718,0.943
				c-0.296-0.025-0.656,0.072-0.943,0c-0.138-0.035-0.683-0.451-0.472-0.472c-0.832,0.083-1.21,0.812-1.887,0.944
				c-1.833,0.358-3.317-0.326-4.719-0.944c-1.945-0.058-2.954,0.82-5.188,0.472c0.076-0.548-0.105-0.839-0.473-0.943
				c1.079-1.648,1.671,1.114,3.302,0.472c0.893-0.523,2.23-0.602,3.304-0.944c1.206,0.053,1.65,0.866,2.359,1.416
				c1.18-0.089,1.72-0.831,2.83-0.943c0.859-0.086,1.433,0.416,2.359,0.472C49.79,51.74,51.073,50.959,52.632,51.183z"/>
			<path fill-rule="evenodd" clip-rule="evenodd" d="M100.281,51.183c-0.129,0.972-1.757,0.445-1.886,1.416
				C96.873,51.79,99.576,51.318,100.281,51.183z"/>
			<path fill-rule="evenodd" clip-rule="evenodd" d="M71.976,57.788c-0.257,0.954-2.342,0.326-3.775,0.472
				c-1.898,0.194-3.884,0.94-5.662,0.944c-0.143,0-0.852,0.091-0.943,0c-0.085-0.085,0.099-0.915,0-0.944
				c-0.145-0.043-1.263,0.492-1.887,0.472c-1.025-0.034-2.526-1.082-3.303,0.472c-1.266-0.994,1.973-1.456,2.83-1.887
				c0.897-0.584,0.77,0.904,0.944,0.943c0.243,0.055,1.176-0.525,1.888-0.472c0.722,0.054,0.843,0.474,1.416,0.472
				c0.768-0.003,0.801-0.444,1.414-0.472c0.754-0.034,0.833,0.524,1.416,0.472c0.348-0.031,0.528-0.381,0.944-0.472
				c1.016-0.22,2.192,0.11,3.303-0.472C70.637,57.869,71.42,57.714,71.976,57.788z"/>
			<path fill-rule="evenodd" clip-rule="evenodd" d="M67.257,66.28c0.054-0.623,0.888-0.307,1.415-0.472
				c1.144-0.359,2.234-1.158,3.304-1.415c0.901-0.58,0.759,0.897,0.942,0.943c0.546,0.133,1.248-0.463,2.359-0.473
				c0.901-0.006,1.365,0.545,1.887,0.473c0.966-0.137,1.749-1.379,2.831-0.943c0.433,1.507-1.335,0.745-1.886,0.943
				c-0.268,0.096-2.161,1.614-2.832,0.943c-0.643-0.643,0.352-1.114-1.414-0.472c-0.416,0.151-0.738,0.568-1.417,0.472
				c-1.046,0.26-0.672-0.901-1.416-0.943C69.365,65.25,68.449,67.333,67.257,66.28z"/>
			<path fill-rule="evenodd" clip-rule="evenodd" d="M89.902,65.808c1.125,0.431,1.77-0.767,2.832-0.944
				c0.771-0.127,0.804,0.473,1.414,0.473c0.398,0,0.741-0.512,1.415-0.473c0.764,0.045,0.802,0.392,1.417,0.473
				c0.984,0.129,3.513-0.725,3.301,0.943c-1.256-0.882-2.519,0.008-3.773,0c-1.016-0.007-1.207-0.421-1.888-0.472
				c-0.776-0.057-0.798,0.421-1.415,0.472c-0.779,0.063-0.797-0.445-1.416-0.472c0.208,0.009-3.588,1.561-3.301-0.471
				c-1.143,0.587-2.293,1.168-3.774,1.415c-0.11-1.839,2.915-0.543,3.302-1.887C89.257,64.872,91.15,64.602,89.902,65.808z"/>
			<path fill-rule="evenodd" clip-rule="evenodd" d="M50.745,71.941c-0.612,1.461-2.997,0.303-5.661,0.471
				c-1.02,0.066-4.086,0.561-5.662,0.943c-1.287,0.345-0.949-0.938-1.887-0.943c-1.205,0.211-2.167,0.662-2.829,1.416
				c-1.877-0.412-2.371-0.412-4.247,0c-0.323-1.207,0.809-0.634,1.415-0.943c0.851-0.436,1.729-1.511,2.832-1.416
				c0.132,0.762-0.447,0.812-0.473,1.416c1.838,0.108,2.446-1.014,3.774-1.416c1.046-0.259,0.672,0.902,1.415,0.943
				C42.837,71.896,46.739,71.867,50.745,71.941z"/>
			<path fill-rule="evenodd" clip-rule="evenodd" d="M101.226,72.412c-0.047,2.088-3.693,0.588-4.718,0.473
				c-0.777-0.088-0.805,0.503-1.415,0.471c-0.919-0.047-1.313-0.492-1.888-0.471c-0.941,0.034-1.569,0.848-2.359,0.943
				c-1.459,0.176-1.949-0.875-3.303-0.473c0.416-1.313,1.896-1.563,3.303-1.887c0.134,0.762-0.445,0.812-0.471,1.416
				c0.904,0.139,1.633-0.009,2.359-0.473c0.295-0.188,0.848-0.613,1.414-0.471c0.213,0.053,0.572,0.476,0.472,0.471
				c0.437,0.02,1.025-0.582,1.888-0.471c0.209,0.026,2.09,0.141,2.359,0.471C99.375,73.035,99.706,72.483,101.226,72.412z"/>
		</g>
		<g>
			
				<line fill="none" stroke="#C4131B" stroke-width="0.5" stroke-miterlimit="10" x1="31.036" y1="58.366" x2="97.398" y2="58.366"/>
			
				<line fill="none" stroke="#C4131B" stroke-width="0.5" stroke-miterlimit="10" x1="31.036" y1="65.798" x2="97.398" y2="65.798"/>
			
				<ellipse fill="none" stroke="#C4131B" stroke-width="0.4851" stroke-miterlimit="10" cx="63.968" cy="96.766" rx="35.522" ry="11.908"/>
			<g>
				<g>
					<path fill="none" stroke="#C4131B" stroke-width="0.4851" stroke-miterlimit="10" d="M33.32,89.328
						c0,0-11.645-16.489-1.801-30.805"/>
					<g>
						<path fill="#C4131B" d="M33.32,56.211c-0.432,1.404-0.778,3.292-0.689,4.694l-1.324-2.065l-2.339-0.74
							C30.346,57.821,32.078,56.994,33.32,56.211z"/>
					</g>
				</g>
			</g>
			
				<line fill="none" stroke="#C4131B" stroke-width="0.4851" stroke-miterlimit="10" x1="68.655" y1="121.82" x2="84.334" y2="126.521"/>
			
				<line fill="none" stroke="#C4131B" stroke-width="0.4851" stroke-miterlimit="10" x1="68.655" y1="126.746" x2="84.334" y2="121.549"/>
		</g>
	</g>
</g>
</svg>
