<?xml version="1.0" encoding="utf-8"?>
<!-- Generator: Adobe Illustrator 15.0.0, SVG Export Plug-In . SVG Version: 6.00 Build 0)  -->
<!DOCTYPE svg PUBLIC "-//W3C//DTD SVG 1.1//EN" "http://www.w3.org/Graphics/SVG/1.1/DTD/svg11.dtd">
<svg version="1.1" id="Layer_1" xmlns="http://www.w3.org/2000/svg" xmlns:xlink="http://www.w3.org/1999/xlink" x="0px" y="0px"
	 width="144px" height="144px" viewBox="0 0 144 144" enable-background="new 0 0 144 144" xml:space="preserve">
<g>
	<path fill="#FFFFFF" stroke="#212020" stroke-width="2.3828" stroke-miterlimit="10" d="M21.903,23.985
		c0-19.02-1.501-18.335,13.866-18.335h71.789c16.422,0,13.866-1.355,13.866,18.335v94.924c0,20.139,1.886,18.335-13.866,18.335
		H35.77c-15.42,0-13.866,2.299-13.866-18.335V23.985z"/>
	<g>
		<g>
			<path fill-rule="evenodd" clip-rule="evenodd" d="M56.58,32.758c0-1.151,0-2.3,0-3.45c-2.213-0.363-2.98,1.235-4.375,1.149
				c-0.328-0.019-0.682-2.235-0.876-2.298c-0.628-0.214-3.456,2.363-6.126,1.149c0.436-4.316,4.88,1.21,6.126-3.452
				c1.748-1.333,1.312,2.085,1.749,2.303c1.091,0.535,5.084-1.374,6.128,0c0.115,0.15-0.11,2.283,0,2.298
				c0.697,0.095,4.751-2.084,6.125-2.298c2.63-0.416,4.66,0.299,7.876,0c2.676,1.778-3.796,1.01-5.248,1.149
				C63.912,30.128,60.653,31.978,56.58,32.758z"/>
			<path fill-rule="evenodd" clip-rule="evenodd" d="M106.161,27.008c0.475,2.746-1.336,1.806-2.625,2.3
				c-2.39,0.916-6.143,1.153-9.629,2.299c-0.521,0.172-0.884,1.152-0.874,1.151c-0.551,0.107-1.521-1.215-2.626-1.151
				c-0.722,0.044-1.405,1.634-2.625,1.151c-0.45-4.008-2.789-1.687-5.822-2.3c1.16-3.459,4.008-0.85,5.822-3.45
				c0.967-0.049,1.129,3.27,1.751,3.45c0.82,0.239,1.677-2.093,2.626-2.298c1.438-0.315,1.492,1.212,2.623,1.149
				c0.609-0.034,1.015-0.939,1.753-1.149C99.006,27.452,103.122,27.261,106.161,27.008z"/>
			<path fill-rule="evenodd" clip-rule="evenodd" d="M84.834,44.26c1.489-0.423,1.651,0.896,1.75,2.298
				c0.217,1.251,1.74,0.783,1.75,2.303c6.162-1.901,11.486-3.65,18.323-1.151c-1.607,2.933-4.432,0.164-6.123,0
				c-3.422-0.331-4.226-0.028-7.26,1.151c-2.314,0.899-4.663,2.119-8.44,0C83.819,47.157,83.819,45.961,84.834,44.26z"/>
			<path fill-rule="evenodd" clip-rule="evenodd" d="M31.396,47.709c0.375-2.572,4.312-0.466,6.126-1.151
				C37.261,48.003,32.611,49.235,31.396,47.709z"/>
			<path fill-rule="evenodd" clip-rule="evenodd" d="M70.777,63.812c0.026,3.076-3.167,1.03-5.25,1.15
				c-1.974,0.112-4.302,2.162-5.252,0c-2.85,3.601-5.444,0.45-10.502,1.149c-1.167,0-2.335,0-3.5,0
				c1.815-2.374,4.075-0.862,6.123-1.149c2.443-0.342,4.858-0.877,7.003-1.15c0.974-0.126,1.267-2.149,1.751-2.302
				c1.398-0.434,3.865,0.8,5.252,1.151C68.105,63.094,69.379,63.247,70.777,63.812z"/>
			<path fill-rule="evenodd" clip-rule="evenodd" d="M38.397,63.812c0.532,4.534-4.806,1.352-7.001,2.299
				C30.86,61.576,36.2,64.759,38.397,63.812z"/>
			<path fill-rule="evenodd" clip-rule="evenodd" d="M105.528,78.717c0.532,4.533-4.806,1.352-7.001,2.299
				C97.991,76.479,103.332,79.664,105.528,78.717z"/>
			<path fill-rule="evenodd" clip-rule="evenodd" fill="#ED1A23" d="M80.7,44.434c0.534,4.534-4.804,1.352-7.002,2.299
				C73.164,42.198,78.503,45.381,80.7,44.434z"/>
			<path fill-rule="evenodd" clip-rule="evenodd" d="M61.15,79.912c-0.475,2.325-4.342,0.795-7,1.15
				c-3.521,0.472-7.204,2.295-10.502,2.303c-0.267,0-1.583,0.221-1.752,0c-0.16-0.209,0.185-2.231,0-2.303
				c-0.323-0.128-2.277,1.273-3.499,1.149c-1.559-0.153-4.93-2.49-6.127,1.153c-3.176-3.148,3.71-2.699,4.376-4.602
				c1.632-1.052,2.088,2.176,2.627,2.299c0.541,0.127,2.111-1.288,3.501-1.15c0.537,0.053,3.524,2.517,4.373,1.15
				c1.219-1.957,1.165,0.074,2.626,0C53.597,80.871,57.339,77.959,61.15,79.912z"/>
			<path fill-rule="evenodd" clip-rule="evenodd" d="M87.404,79.912c-1.046,4.217-5.46,1.581-8.752,2.3
				c-2.574,0.565-4.252,2.065-6.126,2.303c0.885-3.46-1.949-2.04-3.499-2.303c0.587-4.181,5.091-1.868,6.125,0
				C78.286,77.637,83.536,82.566,87.404,79.912z"/>
			<path fill-rule="evenodd" clip-rule="evenodd" d="M109.201,95.984c0.821,3.965-3.571,1.812-5.253,2.299
				c0.03-0.008-0.4,0.996-0.875,1.153c-0.55,0.18-1.196-0.166-1.749,0c-1.779,0.522-2.572,0.081-5.253,1.149
				c-0.363,0.142-1.05,1.171-0.875,1.148c-1.25,0.146-3.387-3.516-3.5,0c-1.624-3.23-6.503-2.187-10.503-2.298
				c0.004-1.188,1.098-0.809,1.751-1.153c-0.441,0.232,7.05-3.384,8.752-1.149c0.093,0.124-0.065,2.303,0,2.303
				c0.263-0.009,1.44-0.892,1.751-1.153c0.016-0.012,1.252-1.238,0.874-1.149c1.478-0.348,1.908,1.229,3.502,1.149
				c-0.151,0.008,0.36-1.112,0.873-1.149C101.659,96.931,105.193,95.723,109.201,95.984z"/>
			<path fill-rule="evenodd" clip-rule="evenodd" d="M70.158,46.558c-1.364,1.577-3.197,2.719-6.976,2.303
				c-0.55-0.062-1.216,0.174-1.748,0c-0.257-0.086-1.269-1.101-0.877-1.151c-1.544,0.203-2.245,1.979-3.501,2.3
				c-3.399,0.875-5.56-0.793-8.16-2.3c-3.609-0.143-5.479,2-9.623,1.151c0.141-1.338-0.195-2.047-0.876-2.303
				c1.999-4.016,3.1,2.719,6.124,1.151c1.656-1.274,4.138-1.467,6.13-2.301c2.234,0.127,3.06,2.108,4.372,3.452
				c2.191-0.219,2.602-2.028,4.658-2.303c1.593-0.21,2.658,1.015,4.377,1.151C66.663,47.917,67.266,46.016,70.158,46.558z"/>
			<path fill-rule="evenodd" clip-rule="evenodd" d="M108.408,62.661c-0.475,2.327-4.339,0.792-6.999,1.151
				c-3.521,0.472-7.204,2.292-10.504,2.299c-0.266,0-1.579,0.225-1.748,0c-0.16-0.209,0.182-2.228,0-2.299
				c-0.27-0.106-2.344,1.2-3.502,1.15c-1.903-0.086-4.687-2.64-6.127,1.149c-2.349-2.422,3.661-3.549,5.25-4.601
				c1.664-1.423,1.427,2.204,1.752,2.302c0.452,0.133,2.183-1.28,3.5-1.151c1.342,0.134,1.563,1.155,2.625,1.151
				c1.429-0.009,1.489-1.083,2.626-1.151c1.399-0.084,1.544,1.277,2.626,1.151c0.646-0.076,0.979-0.931,1.751-1.151
				c1.885-0.537,4.066,0.268,6.126-1.151C105.927,62.859,107.38,62.48,108.408,62.661z"/>
			<path fill-rule="evenodd" clip-rule="evenodd" d="M69.027,97.164c-1.139,3.563-5.56,0.741-10.502,1.148
				c-1.892,0.161-7.58,1.367-10.503,2.303c-2.389,0.838-1.76-2.287-3.501-2.303c-2.236,0.514-4.021,1.613-5.248,3.451
				c-3.483-1.002-4.398-1.002-7.877,0c-0.601-2.943,1.501-1.545,2.624-2.299c1.577-1.062,3.208-3.684,5.253-3.451
				c0.246,1.857-0.828,1.98-0.876,3.451c3.409,0.262,4.536-2.471,6.999-3.451c1.942-0.633,1.247,2.198,2.626,2.299
				C54.356,97.055,61.597,96.983,69.027,97.164z"/>
		</g>
		
			<line fill-rule="evenodd" clip-rule="evenodd" fill="none" stroke="#ED1A23" stroke-width="1.1914" stroke-linecap="round" stroke-linejoin="round" stroke-miterlimit="10" x1="44.35" y1="32.758" x2="49.434" y2="32.758"/>
		
			<line fill-rule="evenodd" clip-rule="evenodd" fill="none" stroke="#ED1A23" stroke-width="1.1914" stroke-linecap="round" stroke-linejoin="round" stroke-miterlimit="10" x1="44.35" y1="34.899" x2="49.434" y2="34.899"/>
		
			<line fill-rule="evenodd" clip-rule="evenodd" fill="none" stroke="#ED1A23" stroke-width="1.1914" stroke-linecap="round" stroke-linejoin="round" stroke-miterlimit="10" x1="44.35" y1="37.04" x2="49.434" y2="37.04"/>
		<path fill-rule="evenodd" clip-rule="evenodd" fill="none" stroke="#ED1A23" stroke-width="1.1914" stroke-miterlimit="10" d="
			M93.616,28.726c0,0,11.377,2.298,13.141-3.759c1.277-4.393-2.297-6.335-1.741-3.483c0.557,2.851,4.306,3.502,7.067,3.164"/>
		<path fill-rule="evenodd" clip-rule="evenodd" fill="none" stroke="#ED1A23" stroke-width="1.1914" stroke-miterlimit="10" d="
			M59.794,97.363c0,0,11.379,2.299,13.14-3.761c1.278-4.392-2.295-6.335-1.74-3.483c0.557,2.853,4.305,3.502,7.067,3.164"/>
		<path fill-rule="evenodd" clip-rule="evenodd" fill="none" stroke="#ED1A23" stroke-width="1.1914" stroke-miterlimit="10" d="
			M74.894,52.736c0,0,1.533-4.56,2.305-4.56s2.572,4.56,2.572,4.56"/>
		<path fill-rule="evenodd" clip-rule="evenodd" fill="none" stroke="#ED1A23" stroke-width="1.1914" stroke-miterlimit="10" d="
			M38.435,72.668c0,0,1.533-4.56,2.305-4.56s2.572,4.56,2.572,4.56"/>
		<g>
			<g>
				<path fill="#ED1A23" d="M39.348,62.06c1.158,0.978,0.888,2.502,0.322,3.738c-0.216,0.473,0.787,0.461,0.978,0.435
					c0.483-0.066,1.098-0.271,1.317-0.749c0.649-1.418,0.835-3.196-0.473-4.3C40.902,60.686,38.772,61.574,39.348,62.06
					L39.348,62.06z"/>
			</g>
		</g>
	</g>
</g>
</svg>
