<?xml version="1.0" encoding="utf-8"?>
<!-- Generator: Adobe Illustrator 15.0.0, SVG Export Plug-In . SVG Version: 6.00 Build 0)  -->
<!DOCTYPE svg PUBLIC "-//W3C//DTD SVG 1.1//EN" "http://www.w3.org/Graphics/SVG/1.1/DTD/svg11.dtd">
<svg version="1.1" id="Layer_1" xmlns="http://www.w3.org/2000/svg" xmlns:xlink="http://www.w3.org/1999/xlink" x="0px" y="0px"
	 width="144px" height="144px" viewBox="0 0 144 144" enable-background="new 0 0 144 144" xml:space="preserve">
<g>
	<path fill-rule="evenodd" clip-rule="evenodd" d="M31.163,14.628c0.311,2.218-0.874,1.459-1.717,1.858
		c-1.562,0.74-4.016,0.933-6.296,1.858c-0.343,0.14-0.578,0.931-0.571,0.93c-0.36,0.085-0.995-0.982-1.718-0.93
		c-0.473,0.035-0.919,1.32-1.717,0.93c-0.294-3.238-3.739-1.362-5.724-1.859c0.76-2.793,4.538-0.687,5.724-2.787
		c0.633-0.04,0.737,2.641,1.145,2.787c0.538,0.194,1.096-1.691,1.717-1.857c0.94-0.254,0.974,0.981,1.716,0.929
		c0.398-0.028,0.663-0.758,1.145-0.929C26.482,14.987,29.177,14.831,31.163,14.628z"/>
	<path fill-rule="evenodd" clip-rule="evenodd" d="M123.89,14.578c-0.261,2.819-2.325,1.578-3.433,1.858
		c-3.393,0.858-7.068,0.239-11.448,0c-0.508,0.572-1.022,1.124-1.143,0c-0.409-3.01,2.165-1.771,2.862-1.858
		c1.256-0.157,2.752-0.231,4.004,0C117.105,15.014,120.723,15.886,123.89,14.578z"/>
	<path fill-rule="evenodd" clip-rule="evenodd" d="M6.484,25.624c0.972-0.342-0.681,0.725-0.619,1.858
		c0.142,1.01,1.138,0.632,1.145,1.859c4.029-1.535,9.835-2.947,14.307-0.93c-1.051,2.369-2.897,0.133-4.004,0
		c-2.237-0.268-4.313-0.021-6.296,0.93c-1.514,0.727-2.065,1.712-4.533,0C5.82,27.965,5.82,26.999,6.484,25.624z"/>
	<path fill-rule="evenodd" clip-rule="evenodd" d="M69.175,21.551c-2.632,8.136-10.72,2.422-16.081,5.126
		c-1.865,0.942-2.811,3.144-4.233,3.414c-0.046,0.008,0.086-3.282,0-3.414c0.714,1.112-4.435,1.064-3.384,3.414
		c-1.02-1.926-1.534-4.875-4.232-3.414c0.646-1.159,1.503-3.163,2.539-3.417c1.867-0.46,2.163,1.682,3.386,1.708
		c0.607,0.014,0.938-1.504,1.691-1.708c1.398-0.375,1.438,1.737,2.54,1.708c0.583-0.013,0.978-1.43,1.693-1.708
		c1.826-0.709,6.669-1.552,8.463,0c0.375,0.324-0.097,1.848,0.847,1.708C64.027,24.732,66.273,21.286,69.175,21.551z"/>
	<path fill-rule="evenodd" clip-rule="evenodd" d="M44.5,35.825c2.117-0.095,1.008,1.586,0.827,4.271
		c0.665,1.833,2.263,1.265,2.481,4.265c5.595-4.106,14.308-6.521,20.677-2.135c-1.781,5.627-4.531,0.488-6.617,0
		c-5.953-1.386-12.013,8.119-17.368,2.135C43.543,41.205,43.543,38.983,44.5,35.825z"/>
	<path fill-rule="evenodd" clip-rule="evenodd" d="M90.104,42.486c3.64-3.173,11.425,0.217,18.312-0.928
		c-0.636,3.789-3.058,0.937-4.578,0.928c-0.981-0.004-2.235,1.029-3.434,0.93c0.079,0.007-0.224-0.899-0.573-0.93
		c-0.557-0.046-1.159-0.048-1.717,0c-1.137,0.102-1.562,0.934-2.287,0.93"/>
	<path fill-rule="evenodd" clip-rule="evenodd" d="M115.855,57.354c-1.286-3.359-5.874,2.243-5.723-1.858
		c-1.9,3.628-3.717,1.733-7.438,1.858c-0.763,0-1.526,0-2.289,0c0.092-1.09,1.042-0.786,1.716-0.93c0.764,0,1.527,0,2.289,0
		c1.156-1.017,3.818-0.48,5.151-1.859C110.088,54.021,115.65,52.748,115.855,57.354z"/>
	<path fill-rule="evenodd" clip-rule="evenodd" d="M131.31,53.637c0,0.929,0,1.859,0,2.788c1.065-0.128,1.911-0.611,2.288-1.859
		c1.833,2.778,3.381,0.893,6.295,0.93c-1.6,3.906-7.816,0.317-10.301,2.787c0-0.928,0-1.858,0-2.787
		c-2.276-0.289-2.874,2.146-5.149,1.858C125.294,53.782,128.521,54.068,131.31,53.637z"/>
	<path fill-rule="evenodd" clip-rule="evenodd" d="M15.774,54.427c-0.684,3.405-1.81,1.276-3.962,1.859
		c-1.683,0.457-2.78,1.669-4.005,1.858c0.576-2.795-1.276-1.647-2.29-1.858c0.384-3.378,3.33-1.509,4.006,0
		C11.573,52.59,13.244,56.572,15.774,54.427z"/>
	<path fill-rule="evenodd" clip-rule="evenodd" d="M90.676,55.496c1.731,1.278,2.045-0.443,4.578,0
		C95.885,58.451,90.047,58.451,90.676,55.496z"/>
	<path fill-rule="evenodd" clip-rule="evenodd" d="M44.867,68.591c2.138,3.093,4.433,5.856,8.464,5.124
		c-0.629,6.251-6.481,2.984-7.618,0c-1.855-0.809-2.083,2.754-3.385,3.416c-1.24,0.631-2.577-2.291-4.233,0
		c-1.354-4.757,3.654-4.724,3.385-1.707C42.975,73.881,44.1,71.601,44.867,68.591z"/>
	<path fill-rule="evenodd" clip-rule="evenodd" d="M14.917,69.341c1.936-0.165,4.398-2.117,7.018-1.906
		c0.539,3.203-2.333,1.464-3.434,1.859c0.02-0.007-0.261,0.804-0.573,0.929c-0.36,0.146-2.284-0.427-2.645-0.296L14.917,69.341z"/>
	<path fill-rule="evenodd" clip-rule="evenodd" d="M13.011,70.889c-0.818,0.118-2.448-1.648-2.522,1.193
		c-1.062-2.611-2.491-1.768-5.106-1.858c0.003-0.958,0.719-0.651,1.145-0.929c-0.289,0.187,2.849-2.735,3.961-0.928
		c0.062,0.098-0.042,1.859,0,1.857c0.172-0.006,0.942-0.718,1.146-0.929c0.01-0.01,1.391-0.086,1.145-0.013L13.011,70.889z"/>
	<path fill-rule="evenodd" clip-rule="evenodd" d="M104.984,67.574c1.697-0.811,0.387,1.709,0.571,1.858
		c1.106,0.891,2.971-0.619,5.151,0c-1.207,2.376-4.223,1.817-6.868,1.858C103.422,68.756,104.976,69.42,104.984,67.574z"/>
	<path fill-rule="evenodd" clip-rule="evenodd" d="M135.314,70.361c-0.511,2.406-1.83-0.065-2.861,0
		c-0.902,0.058-1.001,0.93-1.717,0.93c-1.224,0-1.479-0.866-2.289-0.93c-1.321-0.102-3.029,2.137-4.005,0
		c0.233-0.094,1.015-1.823,1.144-1.857c0.716-0.194,1.026,0.949,1.145,0.929c1-0.179,1.229-0.965,2.29-0.929
		C130.271,68.547,133.21,69.598,135.314,70.361z"/>
	<path fill-rule="evenodd" clip-rule="evenodd" d="M8.511,77.039c1.869-0.244,1.213,3.607,2.861,3.717
		c3.847-2.156,8.077-2.452,12.546-0.928c-1.233,2.473-3.133,0.179-4.579,0c-1.247-0.156-0.995-0.102-2.245,0
		c-2.5,0.206-5.179,3.627-8.584,0.928C8.511,79.518,8.511,78.279,8.511,77.039z"/>
	<path fill-rule="evenodd" clip-rule="evenodd" d="M101.881,14.102c-0.256,1.694-1.568,2.397-2.289,2.788
		c-0.641,0.346-2.628,0.911-3.436,0.929c-1.89,0.044-3.828-1.906-5.723-1.858c-1.258,0.032-1.428,0.563-2.289,0.929
		c-0.748,0.318-1.668-0.458-1.715,0.929c-2.127-0.924-1.497-1.985-4.008-0.929C82.277,12.063,86.01,14.68,87,15.96
		c0.381-0.894,2.318,0.151,2.863-0.929c0.314-0.627,1.002-0.591,2.861,0c1.031,0.328,4.484,1.849,6.867,0.929
		C100.533,15.597,100.545,12.554,101.881,14.102z"/>
	<path fill-rule="evenodd" clip-rule="evenodd" d="M96.971,25.761c0.604,2.976-1.542,1.412-2.289,1.859
		c-0.225,0.134,0.013,0.879-0.572,0.929c-0.927,0.08-0.969,0.738-1.717,0.929c-0.926,0.238-0.986-0.847-1.717-0.929
		c-1.385-0.152-2.654,1.931-4.006,0.929c0.209-1.579-0.447-1.752-1.145-1.858c0.484-1.381,1.843-1.345,2.861-1.859
		c-0.75,3.735,2.157,0.966,2.862,0.929c0.96-0.049,1.741,1.067,2.86,0.93C95.392,27.463,95.663,25.314,96.971,25.761z"/>
	<path fill-rule="evenodd" clip-rule="evenodd" d="M125.014,26.69c0.655,2.498-1.33,1.09-1.717,1.858
		c-0.606,1.201-1.168,0.45-2.289,0.929c-0.145,0.062-0.051,0.884-0.572,0.929c-1.719,0.147-4.842-2.244-7.439-1.858
		c-1.311,0.195-2.016,0.903-3.435,1.858c-1.149,1.066-0.851-1.669-1.145-1.858c-0.88-0.562-1.819,2.026-2.861,0
		c0.573-1.417,1.2-1.956,2.29-1.858c0.926,0.084,1.576,1.828,2.287,1.858c0.967,0.043,1.283-0.717,2.289-0.929
		c3.033-0.637,6.691,2.324,10.302,0.929C123.664,28.186,122.904,25.893,125.014,26.69z"/>
	<path fill-rule="evenodd" clip-rule="evenodd" d="M75.697,24.786c-0.186,2.814-2.521,1.288-2.707,4.099
		C70.807,26.544,74.686,25.178,75.697,24.786z"/>
	<path fill-rule="evenodd" clip-rule="evenodd" d="M18.765,41.42c-2.302,0.381-4.71,1.851-6.867,1.857c-0.173,0-1.033,0.18-1.145,0
		c-0.104-0.168,0.119-1.8,0-1.857c-0.176-0.086-1.532,0.97-2.29,0.928c-1.244-0.068-1.303-2.131-2.245,0.929
		c-1.537-1.958,0.632-2.866,1.672-3.716c1.088-1.15,0.932,1.779,1.145,1.859c0.295,0.107,1.427-1.036,2.29-0.929
		c0.875,0.106,1.022,0.932,1.716,0.929c0.934-0.008,0.973-0.875,1.717-0.929c0.916-0.069,1.009,1.031,1.718,0.929
		c0.42-0.062,0.639-0.752,1.143-0.929"/>
	<path fill-rule="evenodd" clip-rule="evenodd" d="M133.025,40.629c0.655,2.497-1.329,1.089-1.716,1.857
		c-0.606,1.202-1.169,0.451-2.289,0.93c-0.146,0.062-0.05,0.885-0.573,0.929c-1.577,0.135-4.662-1.915-6.867-1.859
		c-1.26,0.033-1.429,0.563-2.289,0.93c-0.748,0.318-1.67-0.458-1.717,0.929c-1.289,0.241-1.578-1.571-2.289-1.859
		c0.074,0.032-0.722,1.193-1.145,0.93c-0.071-0.042-0.091-1.449-0.572-0.93c0.531-3.621,3.582-1.109,4.578,0
		c1.019-0.512,2.377-0.477,2.861-1.857c2.466,0.865,6.735,3.014,9.729,1.857C131.677,42.124,130.917,39.83,133.025,40.629z"/>
	<path fill-rule="evenodd" clip-rule="evenodd" d="M24.561,60.966c0.098-2.259,1.593-1.114,2.539-1.709
		c2.053-1.303,4.009-4.193,5.925-5.125c1.618-2.1,1.362,3.251,1.693,3.417c0.979,0.483,2.236-1.68,4.232-1.709
		c1.616-0.022,2.453,1.973,3.386,1.709c1.731-0.496,3.137-4.994,5.078-3.417c0.775,5.457-2.396,2.7-3.384,3.417
		c-0.479,0.343-3.878,5.844-5.08,3.417c-1.152-2.33,0.63-4.034-2.539-1.709c-0.746,0.545-1.325,2.052-2.54,1.709
		c-1.877,0.938-1.205-3.265-2.54-3.417C28.341,57.235,26.698,64.777,24.561,60.966z"/>
	<path fill-rule="evenodd" clip-rule="evenodd" d="M36.047,21.4c1.731-0.495,3.137-4.992,5.078-3.416
		c0.775,5.457-2.396,2.7-3.384,3.416H36.047z"/>
	<path fill-rule="evenodd" clip-rule="evenodd" d="M74.861,43.611c0.98,0.482,2.236-1.68,4.231-1.709
		c1.616-0.022,2.453,1.973,3.388,1.709c1.73-0.495,3.139-4.994,5.076-3.417c0.776,5.457-2.395,2.7-3.383,3.417
		c-0.48,0.343-3.879,5.842-5.081,3.417c-1.151-2.33,0.632-4.035-2.536-1.709c-0.748,0.546-1.326,2.053-2.541,1.709L74.861,43.611z"
		/>
	<path fill-rule="evenodd" clip-rule="evenodd" d="M67.642,57.883c2.015,1.561,3.172-2.779,5.077-3.417
		c1.384-0.464,1.445,1.709,2.54,1.709c0.715,0,1.33-1.851,2.538-1.709c1.37,0.161,1.439,1.417,2.542,1.709
		c1.767,0.466,6.303-2.623,5.922,3.417c-2.252-3.197-4.52,0.026-6.771,0c-1.822-0.027-2.166-1.526-3.385-1.709
		c-1.395-0.209-1.431,1.526-2.539,1.709c-1.4,0.226-1.429-1.614-2.541-1.709c0.372,0.031-6.437,5.651-5.922-1.708
		c-2.051,2.126-4.113,4.228-6.772,5.122c-0.196-6.659,5.231-1.967,5.924-6.832C66.481,54.495,69.878,53.518,67.642,57.883z"/>
	<path fill-rule="evenodd" clip-rule="evenodd" d="M74.406,73.754c-1.394-0.317-1.441,1.82-2.537,1.707
		c-1.649-0.168-2.356-1.781-3.388-1.707c-1.688,0.123-2.814,3.068-4.23,3.416c-2.619,0.639-3.498-3.166-5.926-1.709
		c0.745-4.758,3.4-5.664,5.926-6.833c0.239,2.76-0.799,2.941-0.848,5.125c1.624,0.503,2.931-0.035,4.233-1.708
		c0.53-0.683,1.521-2.221,2.54-1.707c0.383,0.191,1.026,1.722,0.845,1.707c0.784,0.068,1.84-2.108,3.385-1.707
		c0.377,0.098,3.75,0.514,4.236,1.707L74.406,73.754z"/>
	<path fill-rule="evenodd" clip-rule="evenodd" d="M24.458,43.099c0.529-0.682,4.025-2.017,5.044-1.503
		c0.382,0.191,1.026,1.724,0.845,1.707c0.783,0.068,1.841-2.108,3.386-1.707c0.377,0.098,3.75,0.515,4.235,1.707l-4.235,1.71
		c-1.394-0.319-1.443,1.818-2.538,1.705c-1.649-0.168-4.862-1.985-5.893-1.91L24.458,43.099z"/>
	<path fill-rule="evenodd" clip-rule="evenodd" d="M123.869,70.361c0.1,1.516-3.744,1.875-2.861-0.929
		c-1.358,1.513-3.311,2.06-5.152,2.788c-0.02-3.752,4.078-0.816,4.58-3.716c0.764,0,1.525,0,2.288,0
		C122.514,70.083,123.172,70.255,123.869,70.361z"/>
	<path fill-rule="evenodd" clip-rule="evenodd" d="M126.73,85.228c-1.438-1.729-3.098,0.015-4.578,0
		c-1.234-0.011-1.465-0.824-2.29-0.929c-0.944-0.119-0.964,0.873-1.716,0.929c-0.924,0.068-0.998-1.005-1.717-0.929
		c-0.16,0.018-3.771,3.077-3.434-0.93c-1.984,0.496-3.049,2.486-5.15,2.789c-0.135-3.624,3.535-1.072,4.006-3.717
		c1.08,0.411,3.447-1.265,2.859,1.857c0.971,0.473,1.768-1.539,2.863-1.857c0.932-0.273,0.979,0.928,1.717,0.928
		c0.481,0,0.898-1.006,1.717-0.928c0.924,0.085,0.971,0.769,1.716,0.928C123.84,83.609,127.109,82.033,126.73,85.228z"/>
	<path fill="#3080EE" d="M130.471,127.43c-2.952,3.017-5.25,5.554-7.812,3.048L80.048,88.783c-2.56-2.506-0.074-4.858,2.878-7.875
		l0,0c2.951-3.018,5.25-5.553,7.812-3.049l42.611,41.695C135.909,122.061,133.423,124.413,130.471,127.43L130.471,127.43z"/>
	<circle fill="none" stroke="#3080EE" stroke-width="6.5342" stroke-miterlimit="10" cx="56.133" cy="50.411" r="36.017"/>
</g>
</svg>
