<?xml version="1.0" encoding="utf-8"?>
<!-- Generator: Adobe Illustrator 15.0.0, SVG Export Plug-In . SVG Version: 6.00 Build 0)  -->
<!DOCTYPE svg PUBLIC "-//W3C//DTD SVG 1.1//EN" "http://www.w3.org/Graphics/SVG/1.1/DTD/svg11.dtd">
<svg version="1.1" id="Layer_1" xmlns="http://www.w3.org/2000/svg" xmlns:xlink="http://www.w3.org/1999/xlink" x="0px" y="0px"
	 width="144px" height="144px" viewBox="0 0 144 144" enable-background="new 0 0 144 144" xml:space="preserve">
<g>
	<path fill="#FFFFFF" stroke="#212020" stroke-width="2.2979" stroke-miterlimit="10" d="M142.116,76.661
		c-0.953-1.699-3.887-1.788-3.887-1.788L69.871,73.53c0,0-5.069,0-7.127,0.689c-1.64,0.55-5.326,3.415-5.326,3.415L3.729,122.531
		c0,0-2.553,1.684-2.36,4.542c0.18,2.663,5.031,2.383,5.031,2.383l101.836,2.495c0,0,4.73,0.521,6.594-0.857
		c2.395-1.771,3.635-4.92,3.635-4.92l23.965-45.813C142.429,80.36,143.071,78.361,142.116,76.661z"/>
	<g>
		<path fill-rule="evenodd" clip-rule="evenodd" d="M83.599,112.055c-0.648,1.773-2.203-0.089-3.445-0.062
			c-1.09,0.022-1.221,0.666-2.082,0.649c-1.475-0.025-1.77-0.672-2.744-0.738c-1.589-0.104-3.678,1.52-4.825-0.088
			c0.284-0.066,1.248-1.33,1.405-1.354c0.864-0.128,1.222,0.728,1.367,0.714c1.204-0.111,1.491-0.689,2.769-0.639
			C77.548,110.596,81.073,111.441,83.599,112.055z"/>
		<path fill-rule="evenodd" clip-rule="evenodd" d="M31.059,119.369c0.375,0.279,1.775-0.309,2.068,0.037
			c0.099,0.119-0.138,1.352-0.024,1.379c0.833,0.199,1.773-0.644,3.458-0.625c1.336,0.014,1.958,0.822,2.748,0.74
			c1.4-0.146,2.701-1.414,4.159-1.305c1.066,2.025-1.326,0.822-2.783,1.33c-0.271,0.094,0.004,0.652-0.702,0.676
			c-0.97,0.033-3.486,1.969-3.433-0.751c-1.526,0.757-2.849,1.728-5.539,1.274c0.275-1.164-0.514-1.309-1.353-1.401
			C29.839,119.977,31.034,120.281,31.059,119.369z"/>
		<path fill-rule="evenodd" clip-rule="evenodd" d="M89.79,112.857c0.74-2.277,5.035-0.865,6.254-2.643
			c1.416-0.748,0.982,1.232,1.354,1.401c1.006,0.468,1.287-0.852,2.08-0.649c0.426,0.106,0.484,1.635,1.355,1.404
			c2.363,0.345,3.867-0.203,5.527-0.59c-0.184,0.744-1.379,0.443-1.404,1.354c-3.387,0.402-6.268-0.944-8.947-0.854
			C93.638,112.364,91.851,114.892,89.79,112.857z"/>
		<path fill-rule="evenodd" clip-rule="evenodd" d="M69.814,111.805c0.099,1.125-4.536,1.307-3.437-0.756
			c-1.653,1.096-4.013,1.455-6.241,1.957c0.026-2.783,4.92-0.518,5.565-2.657c0.919,0.016,1.842,0.034,2.757,0.05
			C68.183,111.566,68.975,111.709,69.814,111.805z"/>
		<path fill-rule="evenodd" clip-rule="evenodd" d="M73.057,122.895c-1.708-1.314-3.729-0.057-5.513-0.1
			c-1.485-0.038-1.751-0.644-2.745-0.742c-1.138-0.107-1.174,0.63-2.08,0.652c-1.112,0.033-1.188-0.766-2.056-0.726
			c-0.193,0.012-4.584,2.202-4.122-0.764c-2.398,0.323-3.704,1.775-6.244,1.954c-0.109-2.69,4.275-0.718,4.877-2.67
			c1.297,0.33,4.169-0.861,3.42,1.441c1.163,0.371,2.148-1.103,3.472-1.313c1.129-0.183,1.168,0.71,2.057,0.726
			c0.582,0.011,1.097-0.729,2.081-0.65c1.112,0.082,1.16,0.591,2.054,0.726C69.599,121.631,73.559,120.533,73.057,122.895z"/>
		<path fill-rule="evenodd" clip-rule="evenodd" d="M102.698,123.436c-1.23-0.078-1.449-0.678-2.746-0.738
			c-1.537-0.071-1.891,1.223-4.146,0.614c-0.344-0.093-0.775-0.713-0.678-0.702c-1.127-0.109-1.184,0.568-2.08,0.65
			c-1.5,0.141-1.783-0.762-2.746-0.738c0.02-0.001-3.143,1.654-4.148,0.613c-0.064-0.07,0.068-1.38,0.025-1.379
			c-0.369,0.019-0.949,0.497-1.391,0.664c-0.246,0.094-1.219-0.213-1.379-0.026c-0.195,0.235-2.088,1.4-3.471,1.318
			c0.049-2.761,4.623-0.825,5.566-2.657c1.219,0.179,3.463-0.633,2.73,1.428c0.471-0.654,2.789,0.162,3.459-0.625
			c0.963-1.134,0.922,0.017,2.07,0.037c0.57,0.012,1.109-0.701,2.078-0.65c1.125,0.059,1.156,0.592,2.055,0.727
			C99.226,122.17,102.843,120.967,102.698,123.436z"/>
		<path fill-rule="evenodd" clip-rule="evenodd" d="M28.966,120.709c-1.056,0.961-3.019,2.5-4.163,1.303
			C25.523,120.883,27.747,121.319,28.966,120.709z"/>
	</g>
	<g>
		<path fill-rule="evenodd" clip-rule="evenodd" fill="#3080EE" d="M139.479,10.768c1.537,1.063-4.717,11.077-10.848,19.602
			c-18.367,25.551-16.893,29.855-28.451,44.794c-6.52,8.426-7.723,7.559-13.346,12.146l-6.377-4.819
			c2.881-6.66,1.719-7.582,8.049-16.151c11.219-15.196,15.5-15.149,35.07-39.789C130.108,18.326,138.036,9.579,139.479,10.768z"/>
		<path fill="#3080EE" d="M81.528,87.396l-3.07-2.322c0,0-10.556,6.333-13.879,11.309c-3.327,4.977-3.347,12.441-4.657,19.281
			c3.871-4.749,7.271-11.359,11.551-14.968c-2.305,5.103-7.739,10.175-11.25,15.195c6.225-3.125,13.4-5.181,17.28-9.739
			c3.881-4.554,7.094-16.439,7.094-16.439L81.528,87.396z"/>
	</g>
</g>
</svg>
